<svg width="30" height="30" viewBox="0 0 30 30" fill="none" xmlns="http://www.w3.org/2000/svg">
<path fill-rule="evenodd" clip-rule="evenodd" d="M0 15C0 6.71573 6.71573 0 15 0C23.2843 0 30 6.71573 30 15C30 23.2843 23.2843 30 15 30C6.71573 30 0 23.2843 0 15ZM9.0512 6.66998C8.60175 7.19399 8.66219 7.98314 9.1862 8.43259L16.8272 14.9867L9.1862 21.5406L9.14116 21.5812C8.65907 22.0363 8.61497 22.7946 9.0512 23.3032C9.50065 23.8273 10.2898 23.8877 10.8138 23.4382L19.5612 15.9354L19.6059 15.8952C20.1424 15.3895 20.1275 14.5235 19.5612 14.0378L10.8138 6.53499L10.7669 6.49665C10.2437 6.08949 9.48743 6.16139 9.0512 6.66998Z" fill="currentcolor"/>
</svg>
