<svg width="30" height="30" viewBox="0 0 30 30" fill="none" xmlns="http://www.w3.org/2000/svg">
<path fill-rule="evenodd" clip-rule="evenodd" d="M30 15C30 23.2843 23.2843 30 15 30C6.71573 30 0 23.2843 0 15C0 6.71573 6.71573 0 15 0C23.2843 0 30 6.71573 30 15ZM20.9488 23.33C21.3983 22.806 21.3378 22.0169 20.8138 21.5674L13.1728 15.0133L20.8138 8.45936L20.8588 8.41884C21.3409 7.96372 21.385 7.20535 20.9488 6.69676C20.4993 6.17275 19.7102 6.11231 19.1862 6.56176L10.4388 14.0646L10.3941 14.1048C9.85757 14.6105 9.87247 15.4765 10.4388 15.9622L19.1862 23.465L19.2331 23.5033C19.7563 23.9105 20.5126 23.8386 20.9488 23.33Z" fill="#F5F5F5"/>
</svg>
