<svg width="30" height="30" viewBox="0 0 30 30" fill="none" xmlns="http://www.w3.org/2000/svg">
<path fill-rule="evenodd" clip-rule="evenodd" d="M15 0C23.2843 0 30 6.71573 30 15C30 23.2843 23.2843 30 15 30C6.71573 30 0 23.2843 0 15C0 6.71573 6.71573 0 15 0ZM19.1613 9.07308L19.1161 9.11612L15 13.2323L10.8839 9.11612L10.8387 9.07308C10.348 8.62841 9.58948 8.64275 9.11612 9.11612C8.62796 9.60427 8.62796 10.3957 9.11612 10.8839L13.2323 15L9.11612 19.1161C8.62796 19.6043 8.62796 20.3957 9.11612 20.8839C9.58948 21.3572 10.348 21.3716 10.8387 20.9269L10.8839 20.8839L15 16.7677L19.1161 20.8839L19.1613 20.9269C19.652 21.3716 20.4105 21.3572 20.8839 20.8839C21.372 20.3957 21.372 19.6043 20.8839 19.1161L16.7677 15L20.8839 10.8839C21.372 10.3957 21.372 9.60427 20.8839 9.11612C20.4105 8.64275 19.652 8.62841 19.1613 9.07308Z" fill="currentColor"/>
</svg>
