<svg width="17" height="17" viewBox="0 0 17 17" fill="currentColor" xmlns="http://www.w3.org/2000/svg">
<path fill-rule="evenodd" clip-rule="evenodd" d="M14.0343 9.64463C13.7486 9.82257 13.4122 9.84461 13.1565 9.7025C12.8316 9.52181 12.653 9.09863 12.653 8.51011V6.74928C12.653 5.89897 12.3118 5.29392 11.7412 5.13055C10.7743 4.85302 10.0471 6.01864 9.77375 6.45639L8.06841 9.18051V5.85095C8.04923 5.08489 7.7967 4.62667 7.31723 4.48849C6.99997 4.39717 6.52529 4.43378 6.06419 5.12898L2.24356 11.1732C1.73206 10.2165 1.46542 9.15128 1.4668 8.07C1.4668 4.42905 4.42838 1.46717 8.06841 1.46717C11.7084 1.46717 14.6696 4.42905 14.6696 8.07C14.6696 8.0763 14.6712 8.08181 14.6716 8.08771C14.6716 8.09401 14.6704 8.09952 14.6708 8.10582C14.7052 8.81086 14.4734 9.37144 14.0343 9.64463ZM16.1364 8.07039V8.05189L16.136 8.03378C16.1156 3.59961 12.5048 0 8.06801 0C3.61966 0 0 3.62008 0 8.07C0 12.5195 3.61966 16.14 8.06841 16.14C10.1098 16.14 12.0581 15.3755 13.5536 13.9879C13.8509 13.7123 13.8685 13.2482 13.5928 12.9514C13.5279 12.8809 13.4494 12.8238 13.3618 12.7836C13.2743 12.7434 13.1795 12.7208 13.0829 12.7171C12.9864 12.7134 12.8901 12.7288 12.7997 12.7623C12.7093 12.7957 12.6265 12.8466 12.5563 12.912C11.3441 14.043 9.73793 14.6731 8.06841 14.6728C6.11933 14.6728 4.36564 13.8229 3.15616 12.475L6.60161 7.02444V9.53716C6.60161 10.7441 7.07669 11.1342 7.47506 11.2484C7.87382 11.3626 8.48316 11.2846 9.12286 10.2611L11.018 7.23426C11.0787 7.13664 11.1347 7.05239 11.1858 6.97957V8.51011C11.1858 9.63834 11.6445 10.5406 12.444 10.985C13.1649 11.3858 14.0711 11.3496 14.8095 10.8906C15.7045 10.3335 16.1868 9.30727 16.1364 8.07039Z" fill="currentColor"/>
</svg>
