<svg width="20" height="14" viewBox="0 0 20 14" fill="currentColor" xmlns="http://www.w3.org/2000/svg">
<path d="M16.1788 2.22256C14.9996 1.2854 13.6375 0.703974 12.2053 0.244955C12.3104 0.0345712 12.4505 -0.015156 12.6801 0.00779492C14.2251 0.149326 15.6106 0.703974 16.8715 1.57611C16.996 1.66026 17.1089 1.79032 17.1751 1.92037C18.0818 3.71055 18.7006 5.59635 19.0937 7.55483C19.3272 8.71385 19.4439 9.88053 19.4634 11.0587C19.4673 11.1887 19.4128 11.3417 19.335 11.445C18.5099 12.5046 17.4086 13.1625 16.1087 13.4915C15.6028 13.6177 15.0735 13.6636 14.552 13.7325C14.4781 13.7439 14.3691 13.7172 14.3224 13.6636C13.98 13.2696 13.6531 12.8642 13.3028 12.4396C14.4859 12.0723 15.5094 11.5062 16.2994 10.5002C11.9524 12.9674 7.6598 12.8909 3.3789 10.5461C3.46841 10.7986 3.95488 11.2882 4.59701 11.6669C5.08737 11.9538 5.61664 12.1794 6.14202 12.4434C6.13035 12.4587 6.10311 12.5122 6.06419 12.5581C5.78009 12.9062 5.496 13.2581 5.20412 13.5986C5.14574 13.6674 5.04067 13.7363 4.95894 13.7325C3.91207 13.6789 2.90411 13.4571 1.97399 12.9636C1.32018 12.6193 0.744202 12.1756 0.265519 11.6057C0.0942835 11.4029 -0.0107931 11.2002 0.000882067 10.9171C0.0903917 8.5838 0.530157 6.31931 1.3552 4.13514C1.6393 3.38158 1.98177 2.64715 2.31257 1.9089C2.37094 1.78267 2.4838 1.66026 2.60055 1.57993C3.67856 0.826379 4.86165 0.309982 6.16538 0.0842981C6.41445 0.0422213 6.66741 0.0116202 6.91648 0.000144724C7.01377 -0.00368043 7.11496 0.0689975 7.20836 0.13785C5.66334 0.638946 4.20005 1.25097 2.89633 2.27994C7.35235 0.199053 11.7578 0.103424 16.1788 2.22256ZM6.64017 9.75047C7.01377 9.75047 7.35235 9.63189 7.63645 9.40238C8.11902 9.01222 8.28247 8.49199 8.35252 7.89527C8.50041 6.63679 7.05658 5.72258 5.94355 6.2428C5.15742 6.61002 4.741 7.55101 4.99007 8.43844C5.2119 9.23025 5.86571 9.7543 6.64017 9.75047ZM12.7229 9.77342C12.9097 9.73135 13.1082 9.71222 13.2872 9.64337C14.4197 9.21113 14.7894 7.73079 14.0228 6.73625C13.4079 5.93679 12.252 5.86411 11.5437 6.58324C11.0923 7.04226 10.9522 7.60073 11.0261 8.22423C11.1234 9.06959 11.8784 9.75047 12.7229 9.77342Z" fill="currentColor" />
</svg>
