<svg width="32" height="31" viewBox="0 0 32 31" fill="none" xmlns="http://www.w3.org/2000/svg">
<path d="M25.733 8.82261C24.0035 7.44775 22.0058 6.59477 19.9054 5.92137C20.0595 5.61273 20.265 5.53978 20.6017 5.57345C22.8677 5.78108 24.8996 6.59477 26.7489 7.87424C26.9316 7.99769 27.0971 8.18849 27.1941 8.37929C28.524 11.0056 29.4316 13.7721 30.008 16.6453C30.3505 18.3456 30.5217 20.0572 30.5503 21.7856C30.556 21.9764 30.4761 22.2009 30.3619 22.3524C29.1519 23.9068 27.5366 24.872 25.6302 25.3546C24.8882 25.5398 24.112 25.6072 23.3471 25.7082C23.2387 25.725 23.0789 25.6857 23.0104 25.6072C22.5081 25.0292 22.0287 24.4343 21.515 23.8114C23.2501 23.2727 24.7512 22.4422 25.9099 20.9663C19.5344 24.5858 13.2388 24.4736 6.96032 21.0336C7.09159 21.404 7.80506 22.1223 8.74683 22.6779C9.466 23.0987 10.2422 23.4298 11.0128 23.817C10.9957 23.8395 10.9557 23.918 10.8986 23.9854C10.482 24.496 10.0653 25.0123 9.63723 25.5118C9.55162 25.6128 9.39751 25.7138 9.27765 25.7082C7.74227 25.6296 6.26397 25.3041 4.89983 24.5802C3.94094 24.0752 3.0962 23.4242 2.39415 22.5881C2.14301 22.2906 1.9889 21.9932 2.00602 21.578C2.1373 18.1548 2.78227 14.8327 3.99231 11.6285C4.40897 10.523 4.91125 9.44551 5.3964 8.36245C5.48202 8.17727 5.64754 7.99769 5.81877 7.87985C7.39981 6.77435 9.13495 6.01677 11.047 5.68568C11.4123 5.62395 11.7833 5.57906 12.1486 5.56222C12.2913 5.55661 12.4397 5.66323 12.5767 5.76424C10.3107 6.49937 8.16464 7.39724 6.25256 8.90679C12.7879 5.85403 19.249 5.71374 25.733 8.82261ZM11.7434 19.8664C12.2913 19.8664 12.7879 19.6924 13.2045 19.3557C13.9123 18.7833 14.152 18.0202 14.2548 17.1447C14.4717 15.2985 12.3541 13.9573 10.7217 14.7205C9.56874 15.2592 8.95801 16.6397 9.32331 17.9416C9.64865 19.1032 10.6075 19.872 11.7434 19.8664ZM20.6645 19.9001C20.9385 19.8383 21.2296 19.8103 21.4921 19.7093C23.1531 19.0752 23.6953 16.9034 22.5709 15.4444C21.6691 14.2716 19.9739 14.1649 18.9351 15.2199C18.273 15.8933 18.0675 16.7126 18.176 17.6273C18.3187 18.8675 19.426 19.8664 20.6645 19.9001Z" fill="#6F767E" fill-opacity="0.75"/>
</svg>
