<svg width="24" height="24" viewBox="0 0 24 24" fill="none" xmlns="http://www.w3.org/2000/svg">
<path d="M13.0598 10.9399C13.5947 11.4732 14.0191 12.1067 14.3087 12.8043C14.5982 13.5018 14.7473 14.2497 14.7473 15.0049C14.7473 15.7602 14.5982 16.508 14.3087 17.2056C14.0191 17.9032 13.5947 18.5367 13.0598 19.0699C10.8098 21.3099 7.16985 21.3199 4.92985 19.0699C2.68985 16.8199 2.67985 13.1799 4.92985 10.9399" stroke="currentColor" stroke-width="3" stroke-linecap="round" stroke-linejoin="round"/>
<path d="M10.5909 13.4099C8.25094 11.0699 8.25094 7.26988 10.5909 4.91988C12.9309 2.56988 16.7309 2.57988 19.0809 4.91988C21.4309 7.25988 21.4209 11.0599 19.0809 13.4099" stroke="currentColor" stroke-width="3" stroke-linecap="round" stroke-linejoin="round"/>
</svg>
