<svg width="38" height="29" viewBox="0 0 38 29" fill="none" xmlns="http://www.w3.org/2000/svg">
<g clip-path="url(#clip0_1770_3042)">
<path d="M10.8897 4.23193C16.495 4.23193 21.1014 8.8383 21.1014 14.4991C21.1014 20.16 16.5505 24.7663 10.8897 24.7663C5.22887 24.7663 0.678009 20.16 0.678009 14.4991C0.678009 8.8383 5.22887 4.23193 10.8897 4.23193ZM27.1507 4.84242C29.9256 4.84242 32.2566 9.17128 32.2566 14.4991C32.2566 19.827 29.9811 24.1558 27.1507 24.1558C24.3203 24.1558 22.0449 19.827 22.0449 14.4991C22.0449 9.17128 24.3203 4.84242 27.1507 4.84242ZM35.087 5.84139C36.0859 5.84139 36.9184 9.72627 36.9184 14.4991C36.9184 19.272 36.0859 23.1569 35.087 23.1569C34.088 23.1569 33.2555 19.272 33.2555 14.4991C33.2555 9.72627 34.088 5.84139 35.087 5.84139Z" fill="#6F767E" fill-opacity="0.75"/>
</g>
<defs>
<clipPath id="clip0_1770_3042">
<rect width="36.6289" height="27.7492" fill="white" transform="translate(0.677277 0.625488)"/>
</clipPath>
</defs>
</svg>
