<svg width="10" height="6" viewBox="0 0 10 6" fill="none" xmlns="http://www.w3.org/2000/svg">
<path d="M3.11219 0.5C2.21453 0.5 1.38506 0.976497 0.936231 1.75C0.487402 2.5235 0.487402 3.4765 0.936231 4.25C1.38506 5.0235 2.21453 5.5 3.11219 5.5C4.00985 5.5 4.83932 5.0235 5.28815 4.25C5.73697 3.4765 5.73697 2.5235 5.28815 1.75C4.83932 0.976497 4.00985 0.5 3.11219 0.5ZM7.10275 0.794118C6.68033 0.794118 6.28999 1.21456 6.07877 1.89706C5.86756 2.57956 5.86756 3.42044 6.07877 4.10294C6.28999 4.78544 6.68033 5.20588 7.10275 5.20588C7.52518 5.20588 7.91552 4.78544 8.12673 4.10294C8.33795 3.42044 8.33795 2.57956 8.12673 1.89706C7.91552 1.21456 7.52518 0.794118 7.10275 0.794118ZM9.02414 1.08824C8.77926 1.08824 8.58074 1.94416 8.58074 3C8.58074 4.05584 8.77926 4.91176 9.02414 4.91176C9.26902 4.91176 9.46753 4.05584 9.46753 3C9.46753 1.94416 9.26902 1.08824 9.02414 1.08824Z" fill="#161619"/>
</svg>
