<svg width="25" height="14" viewBox="0 0 25 14" fill="currentColor" xmlns="http://www.w3.org/2000/svg">
<path d="M6.96271 0C10.7846 0 13.9254 3.13989 13.9254 6.99855C13.9254 10.8572 10.8225 13.9971 6.96271 13.9971C3.10295 13.9971 0 10.8572 0 6.99855C0 3.13989 3.10295 0 6.96271 0ZM18.0501 0.41613C19.9421 0.41613 21.5314 3.36687 21.5314 6.99855C21.5314 10.6302 19.9799 13.581 18.0501 13.581C16.1202 13.581 14.5687 10.6302 14.5687 6.99855C14.5687 3.36687 16.1202 0.41613 18.0501 0.41613ZM23.4613 1.09707C24.1424 1.09707 24.71 3.74517 24.71 6.99855C24.71 10.2519 24.1424 12.9 23.4613 12.9C22.7802 12.9 22.2126 10.2519 22.2126 6.99855C22.2126 3.74517 22.7802 1.09707 23.4613 1.09707Z" fill="currentColor" />
</svg>
