<svg width="19" height="17" viewBox="0 0 19 17" fill="none" xmlns="http://www.w3.org/2000/svg">
<path d="M10.0699 11.519V13.169C10.7114 13.169 11.3435 13.2071 11.9672 13.1513C12.2396 13.1269 12.5022 12.9249 12.7545 12.7748C12.9066 12.6811 13.0399 12.5602 13.1477 12.4182C13.5324 11.9172 14.0544 11.6864 14.6558 11.5323C15.8466 11.2222 17.0235 10.8612 18.2062 10.5219C18.5267 10.4298 18.5557 10.4519 18.5562 10.7775C18.5562 10.9768 18.5414 11.1762 18.5602 11.375C18.582 11.5992 18.4888 11.7219 18.2824 11.7857C18.2059 11.8146 18.1314 11.8488 18.0595 11.888C17.3146 12.2319 16.6939 12.7949 16.2817 13.5008C15.8626 14.1965 15.4034 14.8675 14.9064 15.5105C14.3326 16.2546 13.56 16.6139 12.5882 16.6041C10.122 16.5807 7.65539 16.5922 5.18788 16.5984C4.17457 16.601 3.22635 16.3716 2.37308 15.8285C1.08293 15.0086 0.306341 13.8427 0.0615952 12.3376C0.0205814 12.0838 0.0214734 11.8238 0.00141233 11.5668C-0.0110701 11.4074 0.0589207 11.3405 0.222084 11.3405C1.62606 11.3434 3.03019 11.3434 4.43447 11.3405C4.59986 11.3405 4.66094 11.4171 4.65158 11.5726C4.59986 12.4341 5.2757 13.2204 6.33314 13.1987C6.97911 13.1854 7.62597 13.1951 8.27194 13.1938C8.29167 13.1911 8.31108 13.1866 8.32989 13.1801V11.5199H8.10699C7.51987 11.5199 6.93319 11.523 6.34607 11.5159C6.25959 11.5159 6.17355 11.4641 6.08706 11.4366C6.1147 11.3564 6.12718 11.2665 6.17221 11.1974C6.71653 10.3611 7.25462 9.52349 7.60502 8.58C7.96166 7.621 7.90683 6.65402 7.70711 5.68085C7.40485 4.20846 6.82442 2.83929 6.12718 1.51397C6.09419 1.43604 6.06809 1.35542 6.04917 1.273C6.13833 1.273 6.23418 1.25528 6.31888 1.27743C6.98535 1.45062 7.65049 1.63179 8.34817 1.81872C8.34817 1.49005 8.34015 1.17688 8.34817 0.864151C8.36868 0.244456 8.91835 -0.142688 9.49076 0.0495551C9.83046 0.164281 10.0489 0.479665 10.0556 0.891171C10.0627 1.3483 10.0556 1.80587 10.0556 2.17929C10.5767 2.62667 11.0627 3.0209 11.5218 3.44392C12.1834 4.05088 12.7629 4.74056 13.2458 5.49569C14.1342 6.88879 14.1525 8.26594 13.1432 9.59082C12.6573 10.2291 12.0889 10.8067 11.5472 11.4021C11.4839 11.472 11.3538 11.5097 11.2526 11.5128C10.867 11.5261 10.4809 11.519 10.0699 11.519Z" fill="currentColor" />
</svg>
