<svg width="28" height="27" viewBox="0 0 28 27" fill="none" xmlns="http://www.w3.org/2000/svg">
<g clip-path="url(#clip0_1770_3028)">
<path d="M27.2716 4.43071C26.272 4.8666 25.215 5.15633 24.1328 5.29096C25.2726 4.61372 26.125 3.54272 26.5293 2.28008C25.4612 2.91287 24.293 3.35881 23.075 3.59869C22.3276 2.80263 21.3583 2.24948 20.2927 2.01097C19.2272 1.77246 18.1145 1.8596 17.0991 2.26108C16.0837 2.66257 15.2123 3.35987 14.5979 4.26258C13.9836 5.16529 13.6546 6.23175 13.6537 7.32367C13.6495 7.74114 13.6919 8.15779 13.78 8.56588C11.6128 8.46058 9.49222 7.8989 7.55706 6.91759C5.62191 5.93628 3.91575 4.55744 2.5502 2.8713C1.85013 4.06939 1.63353 5.48944 1.94461 6.84176C2.25569 8.19408 3.07099 9.37677 4.2242 10.1485C3.36243 10.1275 2.51834 9.8997 1.76302 9.48426V9.54405C1.76614 10.8008 2.2019 12.0182 2.99703 12.9914C3.79215 13.9647 4.89815 14.6345 6.12904 14.8882C5.66279 15.0129 5.18178 15.0738 4.69916 15.0692C4.35304 15.0757 4.00725 15.0445 3.66786 14.9762C4.02005 16.0573 4.69859 17.0026 5.61011 17.6822C6.52164 18.3617 7.62136 18.7421 8.75795 18.771C6.82998 20.2796 4.45187 21.0982 2.00383 21.096C1.56809 21.0984 1.13264 21.0729 0.700165 21.0196C3.19124 22.6243 6.09369 23.4733 9.05688 23.4642C11.0966 23.4783 13.1188 23.087 15.0061 22.313C16.8933 21.5391 18.608 20.3979 20.0505 18.9557C21.493 17.5135 22.6346 15.7991 23.4089 13.912C24.1833 12.0249 24.575 10.0028 24.5613 7.96304C24.5613 7.72224 24.553 7.48974 24.5414 7.2589C25.6155 6.48957 26.5406 5.53124 27.2716 4.43071Z" fill="#6F767E" fill-opacity="0.75"/>
</g>
<defs>
<clipPath id="clip0_1770_3028">
<rect width="26.5714" height="26.5714" fill="white" transform="translate(0.700073 0.214355)"/>
</clipPath>
</defs>
</svg>
