<svg width="10" height="8" viewBox="0 0 10 8" fill="none" xmlns="http://www.w3.org/2000/svg">
<path d="M9.99961 0.946944C9.63523 1.10786 9.24381 1.21615 8.83298 1.26499C9.25257 1.0151 9.5743 0.619432 9.72584 0.147664C9.33367 0.379005 8.89885 0.547115 8.43585 0.637985C8.06537 0.24535 7.53765 0 6.95357 0C5.83187 0 4.92263 0.904538 4.92263 2.01959C4.92263 2.17786 4.9409 2.33234 4.97517 2.47962C3.28729 2.39557 1.79092 1.59137 0.788775 0.369161C0.614389 0.667518 0.514251 1.01434 0.514251 1.38501C0.514251 2.08547 0.872541 2.70377 1.4174 3.06574C1.08462 3.05513 0.77126 2.96426 0.497498 2.81319C0.497498 2.8219 0.497498 2.82985 0.497498 2.83856C0.497498 3.81731 1.19732 4.63363 2.12675 4.81878C1.95655 4.86497 1.77683 4.88958 1.59141 4.88958C1.46081 4.88958 1.33325 4.87671 1.20951 4.85361C1.46804 5.65592 2.21813 6.24014 3.10681 6.25642C2.41193 6.79823 1.5362 7.1212 0.58431 7.1212C0.420585 7.1212 0.258765 7.11174 0.0996094 7.0928C0.998571 7.66567 2.06583 7.99999 3.21304 7.99999C6.949 7.99999 8.99137 4.92252 8.99137 2.25358C8.99137 2.16612 8.98947 2.07904 8.98566 1.99233C9.38278 1.70723 9.72737 1.3517 9.99961 0.946944Z" fill="#161619"/>
</svg>
