<svg width="20" height="16" viewBox="0 0 20 16" fill="currentColor" xmlns="http://www.w3.org/2000/svg">
<path d="M19.8 1.89389C19.0712 2.21572 18.2884 2.43229 17.4667 2.52998C18.3059 2.03019 18.9494 1.23886 19.2525 0.295328C18.4681 0.75801 17.5985 1.09423 16.6725 1.27597C15.9315 0.4907 14.8761 0 13.7079 0C11.4645 0 9.64603 1.80908 9.64603 4.03918C9.64603 4.35572 9.68259 4.66467 9.75112 4.95925C6.37535 4.79114 3.38262 3.18273 1.37833 0.738321C1.02956 1.33504 0.829283 2.02868 0.829283 2.77003C0.829283 4.17095 1.54586 5.40754 2.63558 6.13147C1.97002 6.11027 1.3433 5.92853 0.795777 5.62638C0.795777 5.6438 0.795777 5.6597 0.795777 5.67712C0.795777 7.63462 2.19543 9.26725 4.05427 9.63755C3.71388 9.72993 3.35445 9.77916 2.98359 9.77916C2.72239 9.77916 2.46729 9.75341 2.2198 9.70722C2.73686 11.3118 4.23704 12.4803 6.0144 12.5128C4.62464 13.5965 2.87317 14.2424 0.969401 14.2424C0.641952 14.2424 0.318311 14.2235 0 14.1856C1.79792 15.3313 3.93243 16 6.22686 16C13.6988 16 17.7835 9.84504 17.7835 4.50717C17.7835 4.33224 17.7797 4.15807 17.7721 3.98466C18.5664 3.41445 19.2555 2.70339 19.8 1.89389Z" fill="currentColor"/>
</svg>
