<svg width="17" height="18" viewBox="0 0 17 18" fill="currentColor" xmlns="http://www.w3.org/2000/svg">
<path d="M5.02004 1.27042C4.79272 1.23536 4.78305 1.23173 4.89066 1.21601C5.09621 1.18457 5.57987 1.22689 5.91359 1.30549C6.69228 1.48928 7.40084 1.96084 8.15776 2.79878L8.35848 3.02126L8.64625 2.97531C9.85781 2.78185 11.0887 2.93541 12.1201 3.40819C12.4043 3.53877 12.8516 3.79753 12.9061 3.86403C12.9254 3.8858 12.9581 4.02122 12.9786 4.16753C13.056 4.67295 13.0185 5.05866 12.8625 5.34765C12.7779 5.50484 12.7731 5.55441 12.8299 5.68984C12.8571 5.74561 12.8993 5.79264 12.9519 5.82556C13.0045 5.85848 13.0653 5.87597 13.1273 5.87604C13.3837 5.87604 13.6594 5.46494 13.7863 4.8918L13.8371 4.66327L13.9375 4.77693C14.49 5.39843 14.9229 6.24483 14.9967 6.84698L15.016 7.00417L14.9241 6.86149C14.7905 6.64297 14.6111 6.45607 14.3981 6.31375C14.0281 6.07072 13.6364 5.98728 12.6014 5.93287C11.6655 5.88451 11.1359 5.8047 10.6111 5.63421C9.71755 5.34402 9.26775 4.95951 8.20613 3.57626C7.73456 2.9608 7.44437 2.62103 7.15417 2.34777C6.49519 1.72506 5.8483 1.39859 5.02004 1.27163V1.27042Z" fill="currentcColor"/>
<path d="M13.12 2.6432C13.143 2.23209 13.1986 1.96003 13.3123 1.71216C13.3372 1.64951 13.3684 1.58955 13.4054 1.5332C13.4114 1.5332 13.3921 1.60575 13.3618 1.69402C13.2796 1.93585 13.2651 2.26473 13.3232 2.64803C13.3957 3.13411 13.4356 3.20424 13.9519 3.729C14.1949 3.97567 14.4767 4.28521 14.5795 4.41942L14.7657 4.66125L14.5795 4.48835C14.3521 4.27675 13.8298 3.86322 13.7137 3.80397C13.6363 3.76528 13.6242 3.76528 13.5771 3.81244C13.5323 3.85596 13.5239 3.92126 13.5166 4.2308C13.5082 4.71325 13.4416 5.02279 13.282 5.33112C13.1962 5.5004 13.1829 5.46412 13.2603 5.27429C13.3183 5.13403 13.3244 5.07115 13.3244 4.60442C13.3244 3.66734 13.2107 3.44123 12.5541 3.05672C12.3561 2.94234 12.1527 2.83743 11.9447 2.74234C11.8422 2.70115 11.7428 2.65266 11.6473 2.59725C11.6654 2.57911 12.3063 2.76532 12.5638 2.86326C12.9483 3.01077 13.0112 3.02891 13.0583 3.01198C13.0886 2.99989 13.1043 2.90921 13.1188 2.6432H13.12ZM5.46252 4.24773C5.00184 3.61655 4.71527 2.64803 4.77815 1.92376L4.79629 1.70006L4.90148 1.7182C5.09978 1.75448 5.43955 1.88023 5.59916 1.97696C6.03566 2.24055 6.22549 2.58757 6.41774 3.47992C6.47457 3.7411 6.54833 4.03613 6.58219 4.13769C6.6366 4.29851 6.84457 4.67455 7.01264 4.9188C7.13356 5.09533 7.05375 5.17877 6.78532 5.15458C6.37542 5.11831 5.82043 4.73743 5.46252 4.24773V4.24773ZM12.559 8.94766C10.4019 8.08554 9.64252 7.33587 9.64252 6.07232C9.64252 5.88611 9.64857 5.73376 9.65703 5.73376C9.66429 5.73376 9.74772 5.79422 9.84203 5.87039C10.2797 6.21863 10.7694 6.36735 12.1261 6.56444C12.9241 6.68052 13.3715 6.77362 13.7863 6.91026C15.1042 7.34434 15.918 8.22459 16.1126 9.42527C16.1683 9.7735 16.1368 10.4264 16.0437 10.771C15.9712 11.0431 15.7511 11.5328 15.6931 11.5522C15.6761 11.5582 15.6604 11.4965 15.6568 11.4119C15.635 10.9621 15.4053 10.5232 15.0208 10.1943C14.5831 9.82066 13.9954 9.52321 12.559 8.94887V8.94766ZM11.0451 9.30677C11.0198 9.15364 10.9851 9.00222 10.9411 8.85335L10.8855 8.69011L10.9883 8.80498C11.1298 8.96217 11.2422 9.1641 11.3365 9.43374C11.4091 9.63929 11.4163 9.69975 11.4163 10.0335C11.4163 10.3611 11.4067 10.4301 11.339 10.6139C11.246 10.8864 11.0903 11.1333 10.8843 11.3345C10.4901 11.7335 9.9835 11.9536 9.25197 12.0455C9.12501 12.0612 8.75502 12.0878 8.42976 12.1047C7.60875 12.147 7.06826 12.2353 6.5834 12.4046C6.53944 12.4239 6.4923 12.435 6.44435 12.4372C6.425 12.4179 6.7563 12.222 7.02836 12.0914C7.41287 11.9064 7.79617 11.8061 8.65466 11.6646C9.07786 11.5945 9.51677 11.5086 9.62802 11.4748C10.6776 11.1556 11.218 10.3297 11.0451 9.30677V9.30677Z" fill="currentColor"/>
<path d="M12.0333 11.0525C11.7467 10.4407 11.6802 9.84941 11.8374 9.29804C11.8543 9.23759 11.8809 9.19043 11.8979 9.19043C11.9136 9.19043 11.9825 9.2267 12.0478 9.27144C12.1808 9.35971 12.4444 9.50843 13.1505 9.89052C14.0308 10.3681 14.5338 10.7369 14.8748 11.1601C15.1734 11.5289 15.3584 11.9509 15.4479 12.4636C15.4987 12.7538 15.4684 13.4551 15.3935 13.7477C15.1565 14.6715 14.6075 15.397 13.8216 15.8202C13.7067 15.8818 13.6039 15.9326 13.5919 15.9326C13.581 15.9326 13.6233 15.8274 13.685 15.698C13.9498 15.1491 13.98 14.6158 13.7805 14.0222C13.6572 13.6582 13.4081 13.2145 12.9051 12.4636C12.3198 11.593 12.1772 11.3596 12.0333 11.0525V11.0525ZM3.92961 14.3571C4.73127 13.6848 5.72639 13.2084 6.63446 13.0609C7.10217 13.0009 7.5766 13.0193 8.03827 13.1153C8.61866 13.2628 9.13859 13.5941 9.40823 13.9871C9.67182 14.3728 9.78548 14.7077 9.90398 15.455C9.94992 15.7488 10.0007 16.0451 10.0152 16.1116C10.1035 16.4985 10.2764 16.808 10.4892 16.9628C10.8278 17.2095 11.413 17.2252 11.9873 17.0027C12.047 16.9752 12.11 16.9557 12.1747 16.9447C12.1953 16.9652 11.9063 17.1575 11.7032 17.259C11.4622 17.3872 11.1926 17.4521 10.9197 17.4477C10.3937 17.4477 9.95718 17.1816 9.59202 16.64C9.4581 16.4106 9.33857 16.1732 9.23411 15.929C8.84961 15.0572 8.65977 14.7924 8.2136 14.501C7.82425 14.2471 7.32246 14.2023 6.94521 14.3861C6.44946 14.6279 6.31162 15.2567 6.6671 15.6557C6.83317 15.8272 7.05043 15.94 7.28618 15.9773C7.37982 15.9902 7.47512 15.9827 7.56562 15.9555C7.65612 15.9282 7.7397 15.8818 7.8107 15.8195C7.88169 15.7571 7.93843 15.6801 7.97707 15.5939C8.01571 15.5076 8.03535 15.4141 8.03464 15.3196C8.03464 15.0572 7.93308 14.9085 7.67795 14.7924C7.3285 14.6364 6.95488 14.819 6.95609 15.1442C6.95609 15.2833 7.01776 15.3704 7.15802 15.4344C7.24749 15.4743 7.24991 15.4768 7.17615 15.4622C6.85694 15.3957 6.78197 15.0124 7.03831 14.7585C7.34785 14.4538 7.98628 14.588 8.20513 15.0052C8.29703 15.1805 8.30791 15.5288 8.22811 15.7391C8.04673 16.2107 7.52439 16.4586 6.99236 16.3232C6.62962 16.2313 6.48331 16.1321 6.04681 15.6859C5.28868 14.9097 4.99486 14.7585 3.9018 14.5892L3.69141 14.5566L3.92961 14.3571V14.3571Z" fill="currentColor"/>
<path fill-rule="evenodd" clip-rule="evenodd" d="M0.372575 0.46431C2.90452 3.5186 4.64931 4.77853 4.84277 5.04454C5.00238 5.2646 4.94192 5.4629 4.66866 5.61767C4.47433 5.71531 4.2628 5.77404 4.04595 5.79058C3.8682 5.79058 3.80654 5.72287 3.80654 5.72287C3.70376 5.62614 3.64572 5.64306 3.11733 4.71082C2.66809 4.01164 2.21344 3.31596 1.75342 2.62384C1.71472 2.58756 1.71593 2.58756 3.04357 4.94902C3.25759 5.44114 3.08589 5.6213 3.08589 5.69143C3.08589 5.83411 3.04599 5.90908 2.86945 6.10617C2.57442 6.43263 2.44263 6.80021 2.3471 7.56076C2.2407 8.41321 1.94083 9.01536 1.10894 10.0468C0.622867 10.6501 0.543064 10.7602 0.419731 11.0044C0.264961 11.3103 0.222641 11.482 0.205713 11.8677C0.187576 12.2776 0.222641 12.5412 0.348392 12.9318C0.457215 13.2752 0.573292 13.5001 0.867114 13.9523C1.12103 14.3428 1.26613 14.633 1.26613 14.7467C1.26613 14.8362 1.28306 14.8362 1.67724 14.7479C2.61553 14.5375 3.3785 14.1675 3.80775 13.7117C4.07376 13.4299 4.13542 13.2752 4.13784 12.8895C4.13905 12.6379 4.13059 12.5847 4.06167 12.4397C3.95043 12.2039 3.74729 12.0068 3.29991 11.7021C2.71226 11.3031 2.46076 10.9826 2.39305 10.5413C2.33501 10.1786 2.40151 9.92343 2.72556 9.24752C3.06171 8.54621 3.14514 8.24756 3.20197 7.54263C3.23824 7.08678 3.28782 6.90662 3.41961 6.76152C3.55745 6.61159 3.68079 6.5608 4.02176 6.51486C4.57676 6.43868 4.92862 6.29721 5.21882 6.0312C5.33514 5.93519 5.42898 5.81484 5.49375 5.67863C5.55851 5.54242 5.59261 5.39366 5.59365 5.24284L5.60574 4.98892L5.46427 4.82689C4.95522 4.23683 0.0315969 0 0.000159233 0C-0.00588648 0 0.160975 0.209182 0.372575 0.46431ZM1.5527 12.332C1.60817 12.2341 1.62466 12.1188 1.59889 12.0092C1.57312 11.8996 1.50697 11.8037 1.41365 11.7408C1.23227 11.6199 0.948126 11.6779 0.948126 11.8339C0.948126 11.8822 0.974728 11.9173 1.03518 11.9475C1.13675 11.9995 1.14401 12.0576 1.0642 12.1773C0.983192 12.297 0.990446 12.4022 1.08234 12.4747C1.23107 12.5896 1.44146 12.5267 1.5527 12.332V12.332ZM5.95518 6.64907C5.69522 6.72766 5.44251 7.00214 5.3627 7.28992C5.31555 7.46524 5.34336 7.77357 5.4147 7.86789C5.53077 8.02145 5.64201 8.06135 5.94551 8.06014C6.53799 8.05651 7.05308 7.8038 7.11354 7.48701C7.16191 7.22825 6.9358 6.87034 6.62384 6.71195C6.41193 6.62591 6.17941 6.60405 5.95518 6.64907V6.64907ZM6.64923 7.18714C6.73992 7.05776 6.70001 6.91871 6.54404 6.8244C6.249 6.64423 5.80041 6.79296 5.80041 7.07106C5.80041 7.21011 6.03378 7.36125 6.24779 7.36125C6.39047 7.36125 6.58635 7.27661 6.64923 7.18714Z" fill="currentColor"/>
</svg>
