<svg width="8" height="8" viewBox="0 0 8 8" fill="currentColor" xmlns="http://www.w3.org/2000/svg">
<path d="M4 0C1.79368 0 0 1.79368 0 4C0 6.20632 1.79368 8 4 8C6.20632 8 8 6.20632 8 4C8 1.79368 6.20632 0 4 0ZM4.7 2.04816C4.46951 2.0827 4.23907 2.1 4 2.1C3.76099 2.1 3.53049 2.0827 3.3 2.04816C3.51341 1.15802 3.82929 0.7 4 0.7C4.17071 0.7 4.48659 1.15803 4.7 2.04816ZM5 0.9C5.41462 1.04782 5.78688 1.27389 6.1 1.56086C5.86308 1.70001 5.60924 1.81301 5.33 1.9C5.24536 1.52611 5.13534 1.18698 5 0.900015V0.9ZM3.1 3.6C3.10847 3.27428 3.13394 2.97431 3.1764 2.7C3.44813 2.74287 3.71981 2.76003 4 2.76003C4.28019 2.76003 4.5604 2.74287 4.8236 2.7C4.85753 2.97431 4.88306 3.27428 4.9 3.6H3.1ZM4.9 4.3C4.89153 4.62887 4.86606 4.93174 4.8236 5.2C4.55186 5.15672 4.28019 5.13939 4 5.13939C3.71981 5.13939 3.4396 5.15672 3.1764 5.2C3.14247 4.92304 3.11694 4.62881 3.1 4.3H4.9ZM2.47 1.9C2.19078 1.81302 1.93692 1.70001 1.7 1.56086C2.02155 1.2739 2.39387 1.03909 2.8 0.9C2.66466 1.17823 2.55465 1.51737 2.47 1.89998V1.9ZM2.4 2.58622C2.35001 2.91586 2.32501 3.25379 2.30833 3.59994L0.7 3.6C0.758361 3.0478 0.966696 2.53684 1.28332 2.1C1.61668 2.30604 1.99168 2.47086 2.39997 2.58625L2.4 2.58622ZM2.30878 4.40003C2.31705 4.74618 2.35025 5.0841 2.4 5.41375C1.99365 5.52913 1.61222 5.69396 1.28047 5.9C0.973656 5.46319 0.766341 4.95223 0.7 4.4L2.30878 4.40003ZM2.47 6.1C2.55464 6.47065 2.6646 6.81551 2.8 7.1C2.38538 6.95346 2.01312 6.72935 1.7 6.44485C1.93698 6.30691 2.19076 6.18622 2.47 6.1ZM3.3 5.95184C3.53049 5.9173 3.76092 5.9 4 5.9C4.23901 5.9 4.46951 5.9173 4.7 5.95184C4.48659 6.84198 4.17071 7.3 4 7.3C3.82929 7.3 3.51341 6.84197 3.3 5.95184ZM5.33 6.1C5.60922 6.18698 5.86308 6.30871 6.1 6.43914C5.77845 6.7261 5.40613 6.96091 5 7.1C5.13534 6.82177 5.24535 6.48263 5.33 6.10001V6.1ZM5.4 5.41372C5.44976 5.08408 5.47463 4.74615 5.49123 4.4H7.1C7.04192 4.9522 6.83461 5.46316 6.51953 5.9C6.17946 5.6939 5.80631 5.52908 5.4 5.41369V5.41372ZM5.49122 3.59997C5.48295 3.25382 5.44975 2.9159 5.4 2.58625C5.80635 2.47087 6.18778 2.30604 6.51953 2.1C6.82634 2.53681 7.03366 3.04777 7.1 3.6L5.49122 3.59997Z" fill="currentColor"/>
</svg>
