<svg width="29" height="29" viewBox="0 0 29 29" fill="none" xmlns="http://www.w3.org/2000/svg">
<path d="M14.6369 8.4311C11.2779 8.4311 8.57227 11.1367 8.57227 14.4958C8.57227 17.8548 11.2779 20.5661 14.6369 20.5661C17.996 20.5661 20.7016 17.8605 20.7016 14.5015C20.7016 11.1424 17.996 8.4311 14.6369 8.4311ZM14.6369 18.4452C12.4644 18.4452 10.6932 16.6797 10.6932 14.5015C10.6932 12.3233 12.4587 10.5577 14.6369 10.5577C16.8152 10.5577 18.5807 12.3233 18.5807 14.5015C18.5807 16.6797 16.8094 18.4452 14.6369 18.4452ZM22.3696 8.18461C22.3696 8.96992 21.7334 9.59473 20.9595 9.59473C20.1742 9.59473 19.5494 8.95846 19.5494 8.18461C19.5494 7.3993 20.1857 6.7745 20.9595 6.7745C21.7334 6.7745 22.3696 7.3993 22.3696 8.18461ZM26.3822 9.61766C26.2905 7.72031 25.8605 6.04078 24.4676 4.65932C23.0804 3.27213 21.4066 2.84222 19.5093 2.74477C17.5546 2.63586 11.702 2.63586 9.74163 2.74477C7.86721 2.84222 6.18195 3.27213 4.79476 4.65932C3.40757 6.04651 2.97765 7.72031 2.88021 9.61766C2.7713 11.5723 2.7713 17.4249 2.88021 19.3853C2.97192 21.2827 3.40184 22.9622 4.79476 24.3436C6.18195 25.7308 7.85574 26.1607 9.7531 26.2582C11.7078 26.3671 17.5603 26.3671 19.5207 26.2582C21.4181 26.1665 23.0976 25.7366 24.4791 24.3436C25.8663 22.9565 26.2962 21.2827 26.3936 19.3853C26.4968 17.4192 26.4968 11.5781 26.3822 9.61766ZM23.8657 21.4718C23.453 22.5036 22.662 23.3061 21.6187 23.7188C20.0596 24.3379 16.368 24.2003 14.6427 24.2003C12.9173 24.2003 9.22 24.3379 7.66658 23.7188C6.63479 23.3061 5.83228 22.5151 5.41956 21.4718C4.80049 19.9127 4.93806 16.2211 4.93806 14.4958C4.93806 12.7704 4.80049 9.0731 5.41956 7.51968C5.83228 6.48789 6.62332 5.68538 7.66658 5.27266C9.22 4.65932 12.9115 4.79689 14.6369 4.79689C16.3623 4.79689 20.0596 4.65932 21.613 5.2784C22.6448 5.69111 23.4473 6.48216 23.86 7.52541C24.4791 9.08457 24.3415 12.7761 24.3415 14.5015C24.3415 16.2269 24.4848 19.9184 23.8657 21.4718Z" fill="#6F767E" fill-opacity="0.75"/>
</svg>
