<svg width="28" height="25" viewBox="0 0 28 25" fill="none" xmlns="http://www.w3.org/2000/svg">
<g clip-path="url(#clip0_1770_3038)">
<path d="M16.1317 16.3066V18.7273C17.0726 18.7273 17.9997 18.7831 18.9144 18.7013C19.3139 18.6655 19.699 18.3692 20.0691 18.1489C20.2921 18.0114 20.4877 17.834 20.6457 17.6258C21.21 16.8908 21.9756 16.5522 22.8576 16.3261C24.604 15.8712 26.3301 15.3416 28.0647 14.8438C28.5348 14.7087 28.5773 14.7412 28.578 15.2188C28.578 15.5112 28.5564 15.8036 28.5838 16.0954C28.6159 16.4242 28.4792 16.6042 28.1765 16.6978C28.0642 16.7403 27.955 16.7905 27.8496 16.8479C26.757 17.3524 25.8468 18.1784 25.2421 19.214C24.6276 20.2346 23.9541 21.219 23.2251 22.1623C22.3836 23.254 21.2505 23.781 19.8252 23.7667C16.2082 23.7323 12.5906 23.7492 8.97169 23.7583C7.48554 23.7622 6.09485 23.4256 4.84343 22.6289C2.95126 21.426 1.81229 19.7157 1.45334 17.5075C1.39319 17.1352 1.3945 16.7537 1.36508 16.3768C1.34677 16.1429 1.44942 16.0447 1.68872 16.0447C3.74784 16.0491 5.80717 16.0491 7.86672 16.0447C8.10929 16.0447 8.19886 16.1572 8.18513 16.3852C8.10929 17.6492 9.10049 18.8026 10.6514 18.7708C11.5988 18.7513 12.5475 18.7656 13.4949 18.7636C13.5238 18.7597 13.5523 18.753 13.5798 18.7435V16.3079H13.2529C12.3918 16.3079 11.5314 16.3125 10.6703 16.3021C10.5435 16.3021 10.4173 16.226 10.2905 16.1857C10.331 16.0681 10.3493 15.9362 10.4153 15.8348C11.2137 14.6079 12.0028 13.3791 12.5167 11.995C13.0398 10.5881 12.9594 9.16947 12.6665 7.74178C12.2232 5.58172 11.3719 3.57308 10.3493 1.62877C10.3009 1.51446 10.2626 1.39617 10.2349 1.27526C10.3656 1.27526 10.5062 1.24927 10.6304 1.28176C11.6079 1.53585 12.5834 1.80163 13.6067 2.07586C13.6067 1.59368 13.5949 1.13425 13.6067 0.675463C13.6367 -0.233657 14.4429 -0.801614 15.2824 -0.519586C15.7806 -0.351278 16.101 0.111405 16.1108 0.715102C16.1213 1.38573 16.1108 2.05701 16.1108 2.60483C16.8751 3.26116 17.5878 3.83951 18.2612 4.46011C19.2315 5.35053 20.0813 6.36233 20.7896 7.47015C22.0927 9.51388 22.1195 11.5342 20.6392 13.4779C19.9265 14.4143 19.0929 15.2617 18.2985 16.1351C18.2057 16.2377 18.0147 16.293 17.8663 16.2975C17.3008 16.317 16.7346 16.3066 16.1317 16.3066Z" fill="#6F767E" fill-opacity="0.75"/>
<path d="M6.11276 13.6185C5.19741 13.6185 4.28205 13.6231 3.36996 13.6127C3.2392 13.6127 3.05417 13.5737 3.00251 13.4879C2.95086 13.4021 3.02998 13.228 3.09863 13.1207C4.97293 10.196 6.8542 7.27438 8.74245 4.35575C8.79999 4.26607 8.91375 4.14975 8.99483 4.15495C9.0759 4.16015 9.1864 4.28492 9.22759 4.38044C9.88534 5.90301 10.4391 7.45417 10.632 9.1158C10.7478 10.0882 10.5616 11.0725 10.0985 11.9367C9.84415 12.4261 9.58523 12.9115 9.29624 13.3833C9.24811 13.4475 9.18677 13.5007 9.1163 13.5395C9.04584 13.5782 8.96788 13.6016 8.8876 13.6081C7.96309 13.6276 7.03989 13.6185 6.11276 13.6185Z" fill="#6F767E" fill-opacity="0.75"/>
</g>
<defs>
<clipPath id="clip0_1770_3038">
<rect width="27.2227" height="24.3571" fill="white" transform="translate(0.45459 0.321289)"/>
</clipPath>
</defs>
</svg>
