<svg width="21" height="21" viewBox="0 0 21 21" fill="none" xmlns="http://www.w3.org/2000/svg">
<path d="M10.3737 0.912598C5.01109 0.912598 0.664062 5.25962 0.664062 10.6223C0.664062 15.9849 5.01109 20.332 10.3737 20.332C15.7364 20.332 20.0834 15.9849 20.0834 10.6223C20.0834 5.25962 15.7364 0.912598 10.3737 0.912598ZM10.3737 2.85453C11.6554 2.85453 13.0633 5.79852 13.2779 9.64841L7.48122 9.66005C7.69484 5.81016 9.09206 2.85453 10.3737 2.85453ZM6.94525 3.63423C6.11022 5.25866 5.66357 7.41227 5.55579 9.65326L2.66233 9.64452C2.95168 6.99864 4.73338 4.779 6.94525 3.63423ZM13.8071 3.63909C16.019 4.78386 17.755 6.94134 18.09 9.66005L15.1975 9.65131C15.1062 7.32099 14.5907 5.27226 13.8071 3.63909ZM2.66814 11.5971L5.56065 11.5729C5.66843 13.8139 6.11798 16.0043 6.94913 17.6113C4.62657 16.4471 3.00215 14.1682 2.66814 11.5971ZM7.4657 11.6049L13.2624 11.5923C13.0488 15.4412 11.6554 18.39 10.3737 18.39C9.09206 18.39 7.67931 15.4548 7.4657 11.6049ZM15.2024 11.5952L18.0823 11.5865C17.7482 14.1586 16.1248 16.4559 13.8032 17.6006C14.6654 15.8179 15.0946 13.8362 15.2024 11.5952Z" fill="#6F767E" fill-opacity="0.75" stroke="#131314" stroke-width="0.41613"/>
</svg>
