<svg width="23" height="23" viewBox="0 0 23 23" fill="none" xmlns="http://www.w3.org/2000/svg">
<g clip-path="url(#clip0_622_52)">
<path d="M23 0H0V23H23V0Z" fill="none"/>
<path d="M14.369 1.86616L2.94238 9.0063C2.13445 9.51115 1.88875 10.5754 2.3936 11.3833L4.50837 14.7676C5.01322 15.5756 6.07744 15.8212 6.88536 15.3164L18.312 8.17626C19.1199 7.67141 19.3656 6.60719 18.8608 5.79926L16.746 2.41493C16.2411 1.607 15.1769 1.36131 14.369 1.86616Z" fill="currentColor"/>
<path d="M13.8619 11.4502L11.6348 12.8418L16.0416 19.8943C16.554 20.7143 17.4679 21.0675 18.0829 20.6832C18.6979 20.2989 18.7811 19.3226 18.2687 18.5026L13.8619 11.4502Z" fill="currentColor"/>
</g>
<defs>
<clipPath id="clip0_622_52">
<rect width="23" height="23" fill="white"/>
</clipPath>
</defs>
</svg>
