<svg width="25" height="27" viewBox="0 0 25 27" fill="none" xmlns="http://www.w3.org/2000/svg">
<rect x="1" y="3" width="23" height="23" stroke="black"/>
<path d="M19.544 14.128C19.544 7.264 16.112 5.848 12.008 5.848C10.328 5.848 8.456 6.016 6.392 6.352V21.712C8.336 22.024 10.16 22.168 11.888 22.168C13.52 22.168 14.816 21.976 16.208 21.28C18.152 20.296 19.544 18.16 19.544 14.128ZM10.712 9.112C11.144 9.064 11.576 9.04 11.984 9.04C14.552 9.04 15.272 10.72 15.272 13.984C15.272 17.272 14.432 18.784 11.648 18.784C11.24 18.784 10.928 18.784 10.712 18.76V9.112Z" fill="#161619"/>
</svg>
