<svg width="23" height="23" viewBox="0 0 23 23" fill="none" xmlns="http://www.w3.org/2000/svg">
<path d="M23 0H0V23H23V0Z" fill="none"/>
<path d="M6.8423 9.43018C7.73533 9.43018 8.4644 10.1206 8.50776 10.9883L8.5098 11.0702V19.0602C8.5098 19.9659 7.76324 20.7002 6.8423 20.7002C5.94928 20.7002 5.22021 20.0097 5.17685 19.142L5.1748 19.0602V11.0702C5.1748 10.1644 5.92137 9.43018 6.8423 9.43018Z" fill="currentColor"/>
<path d="M1.20703 15.0649C1.20703 14.1719 1.89746 13.4428 2.76518 13.3995L2.84704 13.3974L10.837 13.3974C11.7428 13.3974 12.477 14.144 12.477 15.0649C12.477 15.9579 11.7866 16.687 10.9189 16.7304L10.837 16.7324H2.84704C1.94129 16.7324 1.20703 15.9859 1.20703 15.0649Z" fill="currentColor"/>
<path d="M11.9598 1.83984C12.5141 1.83984 12.9666 2.25551 12.9935 2.77792L12.9948 2.82719V7.63749C12.9948 8.18279 12.5314 8.62484 11.9598 8.62484C11.4055 8.62484 10.953 8.20918 10.9261 7.68677L10.9248 7.63749V2.82719C10.9248 2.2819 11.3882 1.83984 11.9598 1.83984Z" fill="currentColor"/>
<path d="M8.56738 5.23258C8.56738 4.67829 8.98305 4.22576 9.50545 4.19885L9.55473 4.19758H14.365C14.9103 4.19758 15.3524 4.66096 15.3524 5.23258C15.3524 5.78687 14.9367 6.2394 14.4143 6.26631L14.365 6.26758H9.55473C9.00943 6.26758 8.56738 5.80419 8.56738 5.23258Z" fill="currentColor"/>
<path d="M17.4803 9.08496C18.0346 9.08496 18.4871 9.50063 18.514 10.023L18.5153 10.0723V14.8826C18.5153 15.4279 18.0519 15.87 17.4803 15.87C16.926 15.87 16.4735 15.4543 16.4466 14.9319L16.4453 14.8826V10.0723C16.4453 9.52701 16.9087 9.08496 17.4803 9.08496Z" fill="currentColor"/>
<path d="M14.0879 12.4777C14.0879 11.9234 14.5036 11.4709 15.026 11.444L15.0752 11.4427H19.8855C20.4308 11.4427 20.8729 11.9061 20.8729 12.4777C20.8729 13.032 20.4572 13.4845 19.9348 13.5114L19.8855 13.5127H15.0752C14.5299 13.5127 14.0879 13.0493 14.0879 12.4777Z" fill="currentColor"/>
</svg>
