<svg width="23" height="23" viewBox="0 0 23 23" fill="none" xmlns="http://www.w3.org/2000/svg">
<path d="M23 0H0V23H23V0Z" fill="none"/>
<path d="M8.72364 3.1001L8.70982 3.10986C7.71812 3.78676 6.43502 3.89901 5.34084 3.40461L5.3255 3.39749L3.08887 6.06307L3.09239 6.06815C3.76433 7.04646 3.88549 8.312 3.41065 9.40312L3.38511 9.46006L13.8222 18.2179L13.8273 18.2145C14.8056 17.5426 16.0711 17.4214 17.1623 17.8963L17.2193 17.9218L19.4568 15.2551L19.4473 15.2414C18.7704 14.2497 18.6582 12.9666 19.1526 11.8724L19.1595 11.857L8.72364 3.1001Z" fill="currentColor"/>
<path d="M5.47808 5.06641L19.7759 10.2703C19.2969 11.5863 19.9755 13.0416 21.2916 13.5206L19.5569 18.2865C18.2408 17.8075 16.7856 18.4861 16.3066 19.8021L2.0088 14.5982C2.48782 13.2821 1.80924 11.8269 0.493164 11.3479L2.22782 6.58186L2.26735 6.59595C3.57287 7.04729 5.00381 6.36925 5.47808 5.06641Z" fill="none"/>
<path d="M18.713 10.8625L5.91133 6.20312L5.90749 6.20877C5.21703 7.17571 4.06741 7.72228 2.87863 7.64766L2.82036 7.64338L1.62988 10.9144L1.64368 10.9242C2.61894 11.6246 3.16327 12.7919 3.07291 13.9892L3.07152 14.006L15.873 18.6653L15.8829 18.6516C16.5832 17.6764 17.7506 17.132 18.9479 17.2224L18.9646 17.2237L20.1547 13.954L20.141 13.9443C19.1657 13.2439 18.6214 12.0766 18.7117 10.8793L18.713 10.8625Z" fill="currentColor"/>
<path d="M18.9545 10.9248H5.42559L5.41985 10.9489C5.11412 12.1882 4.13855 13.1638 2.89919 13.4695L2.875 13.4753V16.8843C4.04715 17.1648 4.98976 18.0436 5.35572 19.1843L5.3621 19.2048H19.018L19.0245 19.1843C19.3743 18.0939 20.251 17.2428 21.3512 16.925L21.3901 16.9139V13.4457L21.3755 13.4417C20.1865 13.1079 19.2574 12.1528 18.9604 10.9489L18.9545 10.9248Z" fill="none"/>
<path d="M17.1208 11.8452C17.1196 11.8729 17.119 11.9008 17.119 11.9288C17.119 12.945 17.9428 13.7688 18.959 13.7688V17.4488C17.9708 17.4488 17.1645 18.2278 17.1208 19.2052H6.07707C6.03338 18.2278 5.22713 17.4488 4.23893 17.4488C4.21089 17.4488 4.183 17.4494 4.15527 17.4507V13.7669C4.183 13.7681 4.21089 13.7688 4.23893 13.7688C5.25514 13.7688 6.07894 12.945 6.07894 11.9288C6.07894 11.9008 6.07831 11.8729 6.07707 11.8452H17.1208Z" fill="currentColor"/>
</svg>
