<svg width="107" height="415" viewBox="0 0 107 415" fill="none" xmlns="http://www.w3.org/2000/svg">
<path d="M51.249 154.039C79.553 154.039 102.498 176.984 102.498 205.288C102.498 233.592 79.553 256.537 51.249 256.537C22.945 256.537 0 233.592 0 205.288C0 176.984 22.945 154.039 51.249 154.039ZM51.249 162.581C27.6623 162.581 8.5415 181.701 8.5415 205.288C8.5415 228.875 27.6623 247.996 51.249 247.996C74.8357 247.996 93.9565 228.875 93.9565 205.288C93.9565 181.701 74.8357 162.581 51.249 162.581Z" fill="white"/>
<path d="M55.3614 325.272L106.692 414.974V415H55.3467V406.458L91.9778 406.458L55.3467 342.444V325.298L55.3614 325.272Z" fill="white"/>
<path d="M55.1377 0L3.80713 89.7015V89.7272H55.1523V81.1857L18.5213 81.1858L55.1523 17.1717V0.0252062L55.1377 0Z" fill="white"/>
</svg>
