<svg width="388" height="200" viewBox="0 0 388 200" fill="none" xmlns="http://www.w3.org/2000/svg">
<path d="M197.597 42.5076C232.247 42.5076 260.336 70.597 260.336 105.247C260.336 139.897 232.247 167.986 197.597 167.986C162.947 167.986 134.857 139.897 134.857 105.247C134.857 70.597 162.947 42.5076 197.597 42.5076ZM197.597 52.9641C168.722 52.9641 145.314 76.372 145.314 105.247C145.314 134.122 168.722 157.53 197.597 157.53C226.472 157.53 249.88 134.122 249.88 105.247C249.88 76.372 226.472 52.9641 197.597 52.9641Z" fill="white"/>
<path d="M325.018 32L387.857 141.813V141.845H325V131.388L369.844 131.388L325 53.0217V32.0309L325.018 32Z" fill="white"/>
<path d="M62.982 32L0.142807 141.813V141.845H63V131.388L18.156 131.388L63 53.0217V32.0309L62.982 32Z" fill="white"/>
</svg>
