<svg width="286" height="200" viewBox="0 0 286 200" fill="none" xmlns="http://www.w3.org/2000/svg">
<path d="M142.597 42.5076C177.247 42.5076 205.336 70.597 205.336 105.247C205.336 139.897 177.247 167.986 142.597 167.986C107.947 167.986 79.8572 139.897 79.8572 105.247C79.8572 70.597 107.947 42.5076 142.597 42.5076ZM142.597 52.9641C113.722 52.9641 90.3137 76.372 90.3137 105.247C90.3137 134.122 113.722 157.53 142.597 157.53C171.472 157.53 194.879 134.122 194.879 105.247C194.879 76.372 171.472 52.9641 142.597 52.9641Z" fill="white"/>
<path d="M214.354 32L277.193 141.813V141.845H214.336V131.388L259.18 131.388L214.336 53.0217V32.0309L214.354 32Z" fill="white"/>
<path d="M70.8392 32L7.99998 141.813V141.845H70.8572V131.388L26.0131 131.388L70.8572 53.0217V32.0309L70.8392 32Z" fill="white"/>
</svg>
