<svg width="374" height="1168" viewBox="0 0 374 1168" fill="none" xmlns="http://www.w3.org/2000/svg">
<path d="M96.6144 954.841C60.2529 956.827 42.0721 981.81 42.0721 1029.74C42.0721 1054.88 47.2965 1074.48 57.693 1088.54C68.0894 1102.6 82.2474 1109.6 100.062 1109.6C112.653 1109.6 122.893 1105.78 130.782 1098.21C138.723 1090.57 145.984 1073.74 152.619 1047.61L166.986 988.604C175.92 952.907 187.988 928.185 203.191 914.439C218.394 900.693 238.09 893.847 262.174 893.847C296.237 893.847 323.351 906.756 343.465 932.523C363.631 958.342 373.714 992.367 373.714 1034.7C373.714 1080.02 364.049 1113.41 344.719 1134.9C325.389 1156.38 299.371 1167.14 266.615 1167.14H260.659V1115.56C285.788 1115.56 303.864 1108.34 314.94 1093.97C326.016 1079.6 331.553 1058.01 331.553 1029.21C331.553 1001.1 325.336 980.085 312.955 966.235C300.573 952.332 285.422 945.381 267.607 945.381C248.121 945.381 234.224 953.482 225.969 969.684C217.715 985.886 209.095 1014.74 200.161 1056.24C191.227 1097.73 178.741 1125.75 162.702 1140.33C146.664 1154.86 127.438 1162.18 104.921 1162.18C73.2093 1162.18 47.8189 1149.37 28.8023 1123.71C9.78566 1098.1 0.277344 1065.43 0.277344 1025.77C0.277344 987.402 8.63631 957.558 25.302 936.234C42.0199 914.91 65.6862 903.934 96.4576 903.254V954.841H96.6144Z" fill="currentColor"/>
<path d="M7.33203 701.666L365.304 556.838V610.881L272.102 649.557V815.71L365.304 854.386V905.502L7.33203 754.716L7.33203 701.666ZM231.979 799.925L231.979 664.505L56.4409 730.464L231.979 799.925Z" fill="currentColor"/>
<path d="M96.6173 323.89C78.4366 326.869 64.5398 335.545 54.9793 349.919C45.4187 364.292 40.6123 382.585 40.6123 404.745C40.6123 446.401 54.7703 476.663 82.9818 495.531C111.246 514.398 145.517 523.806 185.849 523.806C229.473 523.806 264.998 514.398 292.478 495.531C319.906 476.663 333.646 443.265 333.646 395.337C333.646 382.114 332.81 369.361 331.191 357.131C329.519 344.901 326.541 331.835 322.257 317.932H216.15L216.15 399.78H174.983L174.983 268.332H351.513C358.775 289.499 364.261 310.51 367.866 331.312C371.523 352.166 373.299 373.49 373.299 395.285C373.299 457.481 356.006 503.109 321.473 532.221C286.94 561.333 243.892 575.863 192.327 575.863C139.77 575.863 94.8411 561.385 57.4347 532.482C20.0806 503.527 1.42969 459.154 1.42969 399.31C1.42969 361.94 10.0499 331.364 27.238 307.531C44.4261 283.698 67.57 271.154 96.6696 269.848V323.89H96.6173Z" fill="currentColor"/>
<path d="M7.33203 3.9723H49.4925L49.4925 179.062H161.032L161.032 12.3871H202.67L202.67 179.062L321.681 179.062V0.000113329H365.304V228.662L7.33203 228.662L7.33203 3.9723Z" fill="currentColor"/>
</svg>
