<svg width="9" height="194" viewBox="0 0 9 194" fill="none" xmlns="http://www.w3.org/2000/svg">
<path d="M7.74 193.56C8 192.99 8.13 192.37 8.13 191.72C8.13 191.04 7.97 190.47 7.65 190.01C7.34 189.56 6.85 189.33 6.19 189.33C5.22 189.33 4.71 189.96 4.27 191.25C3.92 192.26 3.61 192.79 2.88 192.79C2.13 192.79 1.76 192.29 1.76 191.3C1.76 190.87 1.83 190.39 1.97 189.86L1.42 189.72C1.28 190.27 1.21 190.79 1.21 191.3C1.21 192.45 1.62 193.52 3.01 193.52C3.96 193.52 4.41 192.91 4.86 191.63C5.05 191.08 5.13 190.88 5.36 190.53C5.59 190.18 5.88 190.05 6.29 190.05C7.17 190.05 7.52 190.7 7.52 191.65C7.52 192.27 7.41 192.85 7.18 193.4L7.74 193.56ZM6.2 183.382L8 182.742V182.042L1.32 184.462V185.352L8 187.772V187.072L6.2 186.432V183.382ZM5.62 183.592V186.232L1.83 184.912L5.62 183.592ZM4.65 180.415C7.27 180.415 8.13 178.995 8.13 177.355C8.13 176.775 8.02 176.155 7.81 175.505H4.91V176.115H7.39C7.48 176.505 7.53 176.885 7.53 177.255C7.53 178.865 6.56 179.675 4.61 179.675C2.43 179.675 1.78 178.555 1.78 177.435C1.78 176.835 1.84 176.315 1.97 175.885L1.39 175.755C1.25 176.245 1.18 176.805 1.18 177.415C1.18 178.215 1.39 178.865 1.88 179.455C2.37 180.055 3.34 180.415 4.65 180.415ZM7.41 172.37H4.85L4.85 169.42H4.26L4.26 172.37H1.91V169.25H1.32V173.05H8V169.14H7.41V172.37ZM1.36 164.118L5.05 164.268V163.898L2.27 163.828H1.81L4.63 162.698V162.338L1.81 161.218H2.27L5.05 161.148V160.778L1.36 160.928L1.36 161.378L4.15 162.518L1.36 163.668V164.118ZM5.05 166.058V165.678H1.68V164.678H1.36V167.068H1.68V166.058H5.05ZM4.72 154.201H5.33V150.771H4.72V154.201ZM7.93 145.028C8.04 144.338 8.09 143.768 8.09 143.308C8.09 142.338 7.9 141.608 7.41 140.968C6.92 140.338 5.99 139.978 4.67 139.978C3.36 139.978 2.46 140.268 1.97 140.858C1.48 141.448 1.29 142.178 1.29 143.248C1.29 143.728 1.33 144.318 1.41 145.028H7.93ZM1.92 144.348C1.87 143.998 1.84 143.618 1.84 143.228C1.84 141.518 2.73 140.718 4.66 140.718C6.65 140.718 7.49 141.708 7.49 143.278C7.49 143.608 7.45 143.958 7.38 144.348H1.92ZM7.41 136.845H4.85V133.895H4.26V136.845H1.91V133.725H1.32V137.525H8V133.615H7.41V136.845ZM7.74 131.642C8 131.072 8.13 130.452 8.13 129.802C8.13 129.122 7.97 128.552 7.65 128.092C7.34 127.642 6.85 127.412 6.19 127.412C5.22 127.412 4.71 128.042 4.27 129.332C3.92 130.342 3.61 130.872 2.88 130.872C2.13 130.872 1.76 130.372 1.76 129.382C1.76 128.952 1.83 128.472 1.97 127.942L1.42 127.802C1.28 128.352 1.21 128.872 1.21 129.382C1.21 130.532 1.62 131.602 3.01 131.602C3.96 131.602 4.41 130.992 4.86 129.712C5.05 129.162 5.13 128.962 5.36 128.612C5.59 128.262 5.88 128.132 6.29 128.132C7.17 128.132 7.52 128.782 7.52 129.732C7.52 130.352 7.41 130.932 7.18 131.482L7.74 131.642ZM1.91 123.804H8V123.144H1.91V121.154H1.32L1.32 125.804H1.91L1.91 123.804ZM8 114.495L5.28 116.475C5.04 115.365 4.37 114.815 3.27 114.815C2.6 114.815 2.12 115.045 1.84 115.365C1.41 115.905 1.31 116.655 1.31 117.465C1.31 117.955 1.35 118.495 1.44 119.105H8V118.425H5.29C5.34 118.075 5.37 117.735 5.37 117.415V117.205L8 115.335V114.495ZM1.92 118.425C1.87 118.055 1.85 117.735 1.85 117.465C1.85 116.895 1.9 116.515 2.09 116.115C2.29 115.715 2.71 115.505 3.32 115.505C4.53 115.505 4.84 116.455 4.84 117.395C4.84 117.715 4.8 118.055 4.73 118.425H1.92ZM1.18 109.903C1.18 110.953 1.56 111.713 2.23 112.103C2.91 112.493 3.66 112.643 4.66 112.643C5.47 112.643 6.06 112.583 6.68 112.343C7.56 112.023 8.14 111.313 8.14 109.933C8.14 108.863 7.76 108.113 7.08 107.723C6.41 107.333 5.66 107.183 4.66 107.183C3.86 107.183 3.24 107.263 2.63 107.503C1.75 107.863 1.18 108.573 1.18 109.903ZM6.82 111.513C6.31 111.803 5.59 111.953 4.66 111.953C3.75 111.953 3.12 111.853 2.56 111.563C2.01 111.273 1.72 110.723 1.72 109.913C1.72 109.103 2.01 108.553 2.56 108.263C3.12 107.973 3.75 107.873 4.66 107.873C5.59 107.873 6.31 108.023 6.82 108.313C7.33 108.603 7.58 109.143 7.58 109.913C7.58 110.683 7.33 111.223 6.82 111.513ZM5.25 103.407H8V102.717H5.25L1.32 100.457V101.167L4.59 103.047L1.32 104.917V105.697L5.25 103.407ZM1.32 98.4777H8V97.7977H1.32V98.4777ZM7 90.4658L1.32 94.2358V95.0558H8V94.3758H2.31L8 90.6058V89.7858H1.32V90.4658H7ZM4.65 87.3541C7.27 87.3541 8.13 85.9341 8.13 84.2941C8.13 83.7141 8.02 83.0941 7.81 82.4441H4.91V83.0541H7.39C7.48 83.4441 7.53 83.8241 7.53 84.1941C7.53 85.8041 6.56 86.6141 4.61 86.6141C2.43 86.6141 1.78 85.4941 1.78 84.3741C1.78 83.7741 1.84 83.2541 1.97 82.8241L1.39 82.6941C1.25 83.1841 1.18 83.7441 1.18 84.3541C1.18 85.1541 1.39 85.8041 1.88 86.3941C2.37 86.9941 3.34 87.3541 4.65 87.3541ZM1.32 72.9921L1.32 76.7921H8V76.1121H4.85V73.1721H4.26V76.1121H1.91L1.91 72.9921H1.32ZM6.2 67.3277L8 66.6877V65.9877L1.32 68.4077V69.2977L8 71.7177V71.0177L6.2 70.3777V67.3277ZM5.62 67.5377V70.1777L1.83 68.8577L5.62 67.5377ZM1.32 63.9913H8L8 63.3113H4.94V62.6313L8 59.9413V59.0213L4.62 62.0713L1.33 59.3613L1.33 60.2113L4.35 62.6213V63.3113H1.32V63.9913ZM7.41 56.3348H4.85L4.85 53.3848H4.26L4.26 56.3348H1.91V53.2148H1.32V57.0148H8V53.1048H7.41V56.3348ZM7.74 51.1323C8 50.5623 8.13 49.9423 8.13 49.2923C8.13 48.6123 7.97 48.0423 7.65 47.5823C7.34 47.1323 6.85 46.9023 6.19 46.9023C5.22 46.9023 4.71 47.5323 4.27 48.8223C3.92 49.8323 3.61 50.3623 2.88 50.3623C2.13 50.3623 1.76 49.8623 1.76 48.8723C1.76 48.4423 1.83 47.9623 1.97 47.4323L1.42 47.2923C1.28 47.8423 1.21 48.3623 1.21 48.8723C1.21 50.0223 1.62 51.0923 3.01 51.0923C3.96 51.0923 4.41 50.4823 4.86 49.2023C5.05 48.6523 5.13 48.4523 5.36 48.1023C5.59 47.7523 5.88 47.6223 6.29 47.6223C7.17 47.6223 7.52 48.2723 7.52 49.2223C7.52 49.8423 7.41 50.4223 7.18 50.9723L7.74 51.1323ZM4.66 40.4973C4.66 39.3273 5.19 38.6473 6.04 38.6473C7.07 38.6473 7.54 39.3473 7.54 40.3373C7.54 40.8273 7.44 41.2973 7.23 41.7573L7.82 41.9373C8.03 41.3973 8.13 40.8473 8.13 40.2773C8.13 39.5973 7.96 39.0373 7.61 38.5973C7.27 38.1673 6.74 37.9473 6.02 37.9473C5.13 37.9473 4.57 38.4073 4.32 39.3173C4.07 38.6073 3.55 38.2573 2.76 38.2573C1.65 38.2573 1.19 39.0573 1.19 40.1673C1.19 40.7373 1.29 41.2773 1.5 41.7873L2.02 41.6073C1.83 41.1573 1.74 40.7073 1.74 40.2373C1.74 39.4673 2.05 38.9373 2.81 38.9373C3.69 38.9373 4.14 39.5073 4.15 40.9973H4.66V40.4973ZM8.14 33.7241C8.14 32.9541 7.91 32.4041 7.46 32.0741C7.01 31.7441 6.43 31.5741 5.71 31.5741C4.36 31.5741 3.74 32.3641 3.74 33.4541C3.74 34.0341 3.89 34.5741 4.18 35.0841C2.67 34.8541 1.77 34.1441 1.77 32.9041C1.77 32.6141 1.81 32.3741 1.88 32.1841L1.35 32.0241C1.24 32.3341 1.18 32.6541 1.18 33.0041C1.18 33.8541 1.53 34.5341 2.22 35.0541C2.92 35.5841 3.89 35.8441 5.13 35.8441C6.24 35.8441 7.01 35.6741 7.46 35.3241C7.91 34.9741 8.14 34.4441 8.14 33.7241ZM5.71 32.2541C6.9 32.2541 7.57 32.6441 7.57 33.6841C7.55 34.7841 7.11 35.1041 4.78 35.1441C4.5 34.5941 4.36 34.0641 4.36 33.5541C4.36 32.7841 4.76 32.2541 5.71 32.2541ZM5.78 25.5316C4.43 25.5316 3.84 26.3216 3.84 27.4416C3.84 27.8316 3.9 28.2316 4.03 28.6416H1.89V25.9416H1.32V29.2916H4.54L4.75 28.8716C4.54 28.4316 4.43 28.0216 4.43 27.6416C4.43 26.8316 4.88 26.2416 5.83 26.2416C6.96 26.2416 7.53 26.8016 7.53 27.9216C7.53 28.4116 7.42 28.9016 7.2 29.3916L7.81 29.5816C8.02 29.0716 8.13 28.4816 8.13 27.8016C8.13 27.1316 7.95 26.5916 7.58 26.1716C7.21 25.7516 6.61 25.5416 5.78 25.5316ZM8.44 22.6027H0.98V23.2327H8.44V22.6027ZM7.37 19.5471C6.7 18.6671 6.27 18.1671 5.48 17.4371C4.72 16.7371 3.91 16.3471 3.15 16.3471C1.79 16.3471 1.22 17.1371 1.22 18.3471C1.22 19.0571 1.37 19.6871 1.66 20.2171L2.17 19.9771C1.94 19.4471 1.82 18.9471 1.82 18.4671C1.82 17.5971 2.23 17.0171 3.16 17.0171C3.43 17.0171 3.71 17.0771 4 17.1971C4.57 17.4371 4.99 17.7571 5.52 18.2971C5.79 18.5671 6.01 18.8171 6.19 19.0371C6.37 19.2571 6.58 19.5171 6.82 19.8071C7.06 20.1071 7.25 20.3271 7.38 20.4771H8V16.0271H7.37V19.5471ZM5.57 9.30133V10.4913H1.32V11.1713L5.67 14.3313H6.12L6.12 11.1613H8V10.4913H6.12V9.30133H5.57ZM5.57 13.5313L2.32 11.1613H5.57L5.57 13.5313ZM8.44 6.54609H0.98V7.17609H8.44V6.54609ZM1.32 4.47047H1.94L1.94 1.09047C2.94 1.72047 4.06 2.28047 5.3 2.79047C6.54 3.30047 7.44 3.58047 8 3.63047V2.90047C7.33 2.78047 6.61 2.57047 5.82 2.27047C5.04 1.97047 4.38 1.68047 3.85 1.41047C3.32 1.14047 2.65 0.780469 1.83 0.330468H1.32L1.32 4.47047Z" fill="currentColor"/>
</svg>
