<svg width="1196" height="357" viewBox="0 0 1196 357" fill="none" xmlns="http://www.w3.org/2000/svg">
<path d="M47.076 10.0283V225.211C47.076 253.585 55.1556 275.316 71.3148 290.488C87.474 305.659 110.394 313.203 140.239 313.203C169.672 313.203 192.261 305.741 207.926 290.734C223.59 275.727 231.423 252.191 231.423 220.127V10.0283H277.015V221.521C277.015 262.688 264.318 295.162 238.925 319.026C213.532 342.889 180.472 354.78 139.662 354.78C101.077 354.78 68.1819 344.529 40.8927 323.946C13.6034 303.362 0 268.428 0 219.143V10.0283H47.076Z" fill="currentColor"/>
<path d="M366.165 10.0283V155.364H527.318V10.0283H574.256V348.624H527.318V195.726H366.165V348.624H319.227V10.0283H366.165Z" fill="currentColor"/>
<path d="M642.276 311.398C616.221 281.332 603.276 238.085 603.276 181.742C603.276 124.739 617.211 80.2569 645.162 48.2959C673.031 16.3348 711.618 0.354248 760.842 0.354248C809.407 0.354248 847.087 15.6758 873.719 46.4013C900.351 77.1267 913.709 120.208 913.709 175.646C913.709 233.308 900.104 277.872 872.812 309.339C845.521 340.806 806.768 356.539 756.637 356.539C706.506 356.539 668.331 341.465 642.276 311.398ZM838.43 73.5846C821.527 51.0142 795.472 39.729 760.348 39.729C725.223 39.729 698.509 51.4261 680.122 74.7379C661.735 98.0497 652.583 132.647 652.583 178.364C652.583 220.622 661.075 254.231 677.978 279.19C694.881 304.149 721.43 316.588 757.462 316.588C794.153 316.588 821.032 303.984 838.1 278.778C855.168 253.572 863.743 218.233 863.743 172.845C863.825 129.269 855.415 96.1551 838.43 73.5846Z" fill="currentColor"/>
<path d="M987.909 10.0283V155.364H1149.06V10.0283H1196V348.624H1149.06V195.726H987.909V348.624H940.971V10.0283H987.909Z" fill="currentColor"/>
</svg>
