<svg width="171" height="40" viewBox="0 0 171 40" fill="none" xmlns="http://www.w3.org/2000/svg">
<path d="M18.215 3.0647C28.2075 3.0647 36.308 11.2574 36.308 21.3637C36.308 31.4699 28.2075 39.6627 18.215 39.6627C8.22252 39.6627 0.122009 31.4699 0.122009 21.3637C0.122009 11.2574 8.22252 3.0647 18.215 3.0647ZM18.215 6.11453C9.88794 6.11453 3.13751 12.9418 3.13751 21.3637C3.13751 29.7855 9.88794 36.6128 18.215 36.6128C26.5421 36.6128 33.2925 29.7855 33.2925 21.3637C33.2925 12.9418 26.5421 6.11453 18.215 6.11453Z" fill="white"/>
<path d="M36.3452 32.0381L18.2182 0L0.00360107 32.0381H36.3452ZM18.2118 6.12942L31.1452 28.9883H5.21593L18.2118 6.12942Z" fill="white"/>
<path d="M69.2744 11.3625C69.0904 7.95453 66.7758 6.25055 62.3356 6.25055C60.0065 6.25055 58.1907 6.7402 56.8882 7.7146C55.5856 8.689 54.9368 10.0159 54.9368 11.6856C54.9368 12.8657 55.2903 13.8254 55.9924 14.5648C56.6993 15.309 58.2585 15.9896 60.6796 16.6115L66.1464 17.958C69.4535 18.7953 71.7439 19.9264 73.0174 21.3513C74.2908 22.7762 74.9252 24.6221 74.9252 26.8794C74.9252 30.0719 73.7291 32.6132 71.342 34.4983C68.95 36.3884 65.7977 37.3334 61.8756 37.3334C57.6774 37.3334 54.5833 36.4275 52.5932 34.6158C50.6031 32.8041 49.6056 30.3657 49.6056 27.2956V26.7374H54.3848C54.3848 29.0926 55.053 30.7868 56.3846 31.8248C57.7162 32.8629 59.716 33.3819 62.384 33.3819C64.9891 33.3819 66.9356 32.7992 68.2188 31.6388C69.5068 30.4783 70.1508 29.0583 70.1508 27.3886C70.1508 25.5623 69.4003 24.2598 67.8992 23.4861C66.3981 22.7125 63.7253 21.9046 59.8806 21.0673C56.036 20.23 53.4406 19.0597 52.0896 17.5565C50.7435 16.0533 50.0656 14.2514 50.0656 12.141C50.0656 9.16885 51.2519 6.78917 53.6294 5.00685C56.0021 3.22453 59.0284 2.33337 62.7036 2.33337C66.2577 2.33337 69.0226 3.11681 70.9982 4.67879C72.9738 6.24566 73.9906 8.46376 74.0536 11.3478H69.2744V11.3625Z" fill="white"/>
<path d="M92.7297 2.99438L106.147 36.545H101.14L97.5573 27.8097H82.1641L78.581 36.545H73.8453L87.8149 2.99438H92.7297ZM83.6265 24.0492H96.1725L90.0617 7.59707L83.6265 24.0492Z" fill="white"/>
<path d="M127.729 11.3624C127.453 9.65844 126.649 8.35598 125.317 7.45993C123.986 6.56387 122.291 6.1134 120.238 6.1134C116.379 6.1134 113.575 7.44034 111.827 10.0844C110.079 12.7334 109.208 15.9455 109.208 19.7256C109.208 23.8142 110.079 27.1438 111.827 29.7193C113.575 32.2899 116.669 33.5777 121.109 33.5777C122.335 33.5777 123.516 33.4994 124.649 33.3476C125.782 33.1909 126.993 32.9118 128.281 32.5103V22.5656H120.698V18.7071H132.876V35.2523C130.915 35.9329 128.968 36.4471 127.041 36.7849C125.109 37.1277 123.134 37.2941 121.114 37.2941C115.352 37.2941 111.125 35.6734 108.428 32.4368C105.731 29.2003 104.385 25.1656 104.385 20.3328C104.385 15.4069 105.726 11.1959 108.404 7.69006C111.086 4.18908 115.197 2.44104 120.741 2.44104C124.204 2.44104 127.036 3.24896 129.244 4.8599C131.452 6.47084 132.614 8.63998 132.735 11.3673H127.729V11.3624Z" fill="white"/>
<path d="M157.367 2.99438V6.94584H141.146V17.3998H156.588V21.3023H141.146V32.4565H157.735V36.545H136.551V2.99438H157.367Z" fill="white"/>
<path d="M165.894 2.52917V3.0531H164.631V6.92621H164.103V3.0531H162.873V2.52917H165.894ZM167.676 2.52917L168.843 6.14767L170.035 2.52917H170.974V6.92621H170.422V2.97965L169.071 6.92621H168.529L167.226 2.97965V6.92621H166.669V2.52917H167.676Z" fill="white"/>
</svg>
