<svg width="171" height="40" viewBox="0 0 171 40" fill="currentColor" xmlns="http://www.w3.org/2000/svg">
<path d="M18.2151 3.0647C28.2076 3.0647 36.3081 11.2574 36.3081 21.3637C36.3081 31.4699 28.2076 39.6627 18.2151 39.6627C8.22258 39.6627 0.12207 31.4699 0.12207 21.3637C0.12207 11.2574 8.22258 3.0647 18.2151 3.0647ZM18.2151 6.11453C9.888 6.11453 3.13757 12.9418 3.13757 21.3637C3.13757 29.7855 9.888 36.6128 18.2151 36.6128C26.5421 36.6128 33.2926 29.7855 33.2926 21.3637C33.2926 12.9418 26.5421 6.11453 18.2151 6.11453Z" fill="currentColor"/>
<path d="M36.3455 32.0381L18.2185 0L0.00390625 32.0381H36.3455ZM18.2121 6.12942L31.1455 28.9883H5.21624L18.2121 6.12942Z" fill="currentColor"/>
<path d="M69.2743 11.3624C69.0903 7.9544 66.7757 6.25043 62.3355 6.25043C60.0064 6.25043 58.1906 6.74008 56.8881 7.71448C55.5855 8.68888 54.9367 10.0158 54.9367 11.6855C54.9367 12.8656 55.2901 13.8253 55.9923 14.5646C56.6992 15.3089 58.2584 15.9895 60.6794 16.6114L66.1462 17.9579C69.4534 18.7952 71.7437 19.9263 73.0172 21.3512C74.2907 22.776 74.925 24.622 74.925 26.8793C74.925 30.0718 73.729 32.6131 71.3418 34.4982C68.9498 36.3882 65.7976 37.3333 61.8755 37.3333C57.6773 37.3333 54.5832 36.4274 52.5931 34.6157C50.603 32.804 49.6055 30.3656 49.6055 27.2955V26.7373H54.3847C54.3847 29.0925 55.0529 30.7867 56.3845 31.8247C57.7161 32.8628 59.7159 33.3818 62.3839 33.3818C64.989 33.3818 66.9355 32.7991 68.2187 31.6387C69.5067 30.4782 70.1507 29.0582 70.1507 27.3885C70.1507 25.5621 69.4001 24.2597 67.8991 23.486C66.398 22.7124 63.7252 21.9045 59.8805 21.0672C56.0358 20.2299 53.4404 19.0596 52.0895 17.5564C50.7434 16.0532 50.0655 14.2513 50.0655 12.1409C50.0655 9.16873 51.2518 6.78904 53.6293 5.00673C56.0019 3.22441 59.0283 2.33325 62.7035 2.33325C66.2576 2.33325 69.0225 3.11669 70.9981 4.67866C72.9737 6.24554 73.9905 8.46364 74.0534 11.3477H69.2743V11.3624Z" fill='currentColor'/>
<path d="M92.7301 2.99438L106.148 36.545H101.141L97.5577 27.8097H82.1645L78.5813 36.545H73.8457L87.8153 2.99438H92.7301ZM83.6268 24.0492H96.1728L90.062 7.59707L83.6268 24.0492Z" fill='currentColor'/>
<path d="M127.729 11.3623C127.453 9.65832 126.649 8.35586 125.317 7.4598C123.986 6.56375 122.291 6.11327 120.238 6.11327C116.379 6.11327 113.575 7.44022 111.827 10.0843C110.079 12.7333 109.208 15.9454 109.208 19.7255C109.208 23.814 110.079 27.1436 111.827 29.7192C113.575 32.2898 116.669 33.5776 121.11 33.5776C122.335 33.5776 123.516 33.4993 124.649 33.3475C125.782 33.1908 126.993 32.9117 128.281 32.5102V22.5654H120.698V18.707H132.876V35.2522C130.915 35.9328 128.968 36.4469 127.041 36.7848C125.109 37.1275 123.134 37.294 121.114 37.294C115.352 37.294 111.125 35.6733 108.428 32.4367C105.731 29.2002 104.385 25.1655 104.385 20.3326C104.385 15.4068 105.726 11.1958 108.404 7.68994C111.086 4.18896 115.197 2.44092 120.742 2.44092C124.204 2.44092 127.036 3.24884 129.244 4.85978C131.452 6.47072 132.614 8.63985 132.736 11.3672H127.729V11.3623Z" fill='currentColor'/>
<path d="M157.367 2.99438V6.94584H141.146V17.3998H156.588V21.3023H141.146V32.4565H157.735V36.545H136.551V2.99438H157.367Z" fill='currentColor'/>
<path d="M165.895 2.52905V3.05298H164.631V6.92609H164.103V3.05298H162.873V2.52905H165.895ZM167.676 2.52905L168.843 6.14755L170.035 2.52905H170.974V6.92609H170.422V2.97953L169.071 6.92609H168.529L167.226 2.97953V6.92609H166.669V2.52905H167.676Z" fill='currentColor'/>
</svg>
