<svg width="12" height="295" viewBox="0 0 12 295" fill="currentColor" xmlns="http://www.w3.org/2000/svg">
<path d="M10.584 294.296C11 293.384 11.208 292.392 11.208 291.352C11.208 290.264 10.952 289.352 10.44 288.616C9.944 287.896 9.16 287.528 8.104 287.528C6.552 287.528 5.736 288.536 5.032 290.6C4.472 292.216 3.976 293.064 2.808 293.064C1.608 293.064 1.016 292.264 1.016 290.68C1.016 289.992 1.128 289.224 1.352 288.376L0.471999 288.152C0.247999 289.032 0.136 289.864 0.136 290.68C0.136 292.52 0.792 294.232 3.016 294.232C4.536 294.232 5.256 293.256 5.976 291.208C6.28 290.328 6.408 290.008 6.776 289.448C7.144 288.888 7.608 288.68 8.264 288.68C9.672 288.68 10.232 289.72 10.232 291.24C10.232 292.232 10.056 293.16 9.688 294.04L10.584 294.296ZM8.12 276.092L11 275.068V273.948L0.311999 277.82V279.244L11 283.116V281.996L8.12 280.972L8.12 276.092ZM7.192 276.428L7.192 280.652L1.128 278.54L7.192 276.428ZM5.64 269.423C9.832 269.423 11.208 267.151 11.208 264.527C11.208 263.599 11.032 262.607 10.696 261.567H6.056V262.543H10.024C10.168 263.167 10.248 263.775 10.248 264.367C10.248 266.943 8.696 268.239 5.576 268.239C2.088 268.239 1.048 266.447 1.048 264.655C1.048 263.695 1.144 262.863 1.352 262.175L0.424 261.967C0.2 262.751 0.0879993 263.647 0.0879993 264.623C0.0879993 265.903 0.424 266.943 1.208 267.887C1.992 268.847 3.544 269.423 5.64 269.423ZM10.056 254.632H5.96L5.96 249.912H5.016L5.016 254.632H1.256V249.64H0.311999L0.311999 255.72H11L11 249.464H10.056L10.056 254.632ZM0.375999 239.509L6.28 239.749V239.157L1.832 239.045H1.096L5.608 237.237V236.661L1.096 234.869H1.832L6.28 234.757V234.165L0.375999 234.405V235.125L4.84 236.949L0.375999 238.789V239.509ZM6.28 242.613V242.005H0.888L0.888 240.405H0.375999L0.375999 244.229H0.888V242.613H6.28ZM5.752 217.881H6.728V212.393H5.752V217.881ZM8.12 193.525L11 192.501V191.381L0.311999 195.253V196.677L11 200.549V199.429L8.12 198.405V193.525ZM7.192 193.861V198.085L1.128 195.973L7.192 193.861ZM5.576 185.673C3.912 185.673 2.728 185.369 2.04 184.761C1.352 184.153 1 183.305 1 182.217C1 181.353 1.112 180.553 1.32 179.817L0.455999 179.625C0.216 180.377 0.0879993 181.257 0.0879993 182.265C0.0879993 183.497 0.407999 184.505 1.192 185.401C1.976 186.313 3.496 186.857 5.592 186.857C8.776 186.857 11.224 185.625 11.224 182.217C11.224 181.241 11.128 180.409 10.952 179.689L10.072 179.801C10.216 180.665 10.296 181.417 10.296 182.073C10.296 183.273 9.944 184.169 9.256 184.761C8.568 185.369 7.336 185.673 5.576 185.673ZM5.576 173.762C3.912 173.762 2.728 173.458 2.04 172.85C1.352 172.242 1 171.394 1 170.306C1 169.442 1.112 168.642 1.32 167.906L0.455999 167.714C0.216 168.466 0.0879993 169.346 0.0879993 170.354C0.0879993 171.586 0.407999 172.594 1.192 173.49C1.976 174.402 3.496 174.946 5.592 174.946C8.776 174.946 11.224 173.714 11.224 170.306C11.224 169.33 11.128 168.498 10.952 167.778L10.072 167.89C10.216 168.754 10.296 169.506 10.296 170.162C10.296 171.362 9.944 172.258 9.256 172.85C8.568 173.458 7.336 173.762 5.576 173.762ZM10.056 161.092H5.96V156.372H5.016V161.092H1.256L1.256 156.1H0.311999L0.311999 162.18H11V155.924H10.056V161.092ZM10.056 149.026H0.311999V150.098H11V144.386H10.056V149.026ZM10.056 138.053H5.96L5.96 133.333H5.016L5.016 138.053H1.256V133.061H0.311999L0.311999 139.141H11L11 132.885H10.056L10.056 138.053ZM11 119.682L6.648 122.85C6.264 121.074 5.192 120.194 3.432 120.194C2.36 120.194 1.592 120.562 1.144 121.074C0.455999 121.938 0.296 123.138 0.296 124.434C0.296 125.218 0.36 126.082 0.504 127.058H11V125.97H6.664C6.744 125.41 6.792 124.866 6.792 124.354V124.018L11 121.026V119.682ZM1.272 125.97C1.192 125.378 1.16 124.866 1.16 124.434C1.16 123.522 1.24 122.914 1.544 122.274C1.864 121.634 2.536 121.298 3.512 121.298C5.448 121.298 5.944 122.818 5.944 124.322C5.944 124.834 5.88 125.378 5.768 125.97H1.272ZM8.12 108.464L11 107.44L11 106.32L0.311999 110.192V111.616L11 115.488V114.368L8.12 113.344V108.464ZM7.192 108.8V113.024L1.128 110.912L7.192 108.8ZM1.256 99.7501H11V98.6941H1.256V95.5101H0.311999L0.311999 102.95H1.256V99.7501ZM0.311999 90.3105H11V89.2225H0.311999V90.3105ZM9.4 75.5715L0.311999 81.6035V82.9155H11V81.8275H1.896L11 75.7955V74.4835H0.311999V75.5715H9.4ZM5.64 68.6728C9.832 68.6728 11.208 66.4008 11.208 63.7768C11.208 62.8488 11.032 61.8568 10.696 60.8168H6.056V61.7928H10.024C10.168 62.4168 10.248 63.0248 10.248 63.6168C10.248 66.1928 8.696 67.4888 5.576 67.4888C2.088 67.4888 1.048 65.6968 1.048 63.9048C1.048 62.9448 1.144 62.1128 1.352 61.4248L0.424 61.2168C0.2 62.0008 0.0879993 62.8968 0.0879993 63.8728C0.0879993 65.1528 0.424 66.1928 1.208 67.1368C1.992 68.0968 3.544 68.6728 5.64 68.6728ZM9.848 46.4456L0.311999 47.3896V48.5256L11 47.2456V45.7096L2.472 42.6056L11 39.4376V37.9816L0.311999 36.6696L0.311999 37.8056L9.832 38.7336L1.144 42.0456V43.1976L9.848 46.4456ZM10.056 29.8881H5.96V25.1681H5.016V29.8881H1.256L1.256 24.8961H0.311999L0.311999 30.9761H11V24.7201H10.056V29.8881ZM5.192 13.9656C4.792 13.0376 4.024 12.5736 2.92 12.5736C1.176 12.5736 0.311999 13.7096 0.311999 15.9656C0.311999 16.6216 0.407999 17.5976 0.599999 18.8936H10.792C11 17.9816 11.096 17.0536 11.096 16.1416C11.096 14.9736 10.904 14.0296 10.456 13.1816C10.008 12.3496 9.144 11.8376 7.976 11.8376C6.52 11.8376 5.592 12.5416 5.192 13.9656ZM5.72 16.0456C5.72 13.9816 6.456 12.9416 7.928 12.9416C9.464 12.9416 10.232 13.9496 10.232 15.9496C10.232 16.5736 10.168 17.1976 10.024 17.8216H5.72V16.0456ZM1.336 17.8216C1.224 17.1016 1.176 16.4936 1.176 16.0296C1.176 14.4456 1.784 13.6456 3 13.6456C4.072 13.6456 4.712 14.3496 4.776 15.5656V17.8216H1.336ZM5.656 4.68325C5.656 2.81125 6.504 1.72325 7.864 1.72325C9.512 1.72325 10.264 2.84325 10.264 4.42725C10.264 5.21125 10.104 5.96325 9.768 6.69925L10.712 6.98725C11.048 6.12325 11.208 5.24325 11.208 4.33125C11.208 3.24325 10.936 2.34725 10.376 1.64325C9.832 0.95525 8.984 0.60325 7.832 0.60325C6.408 0.60325 5.512 1.33925 5.112 2.79525C4.712 1.65925 3.88 1.09925 2.616 1.09925C0.839999 1.09925 0.103999 2.37925 0.103999 4.15525C0.103999 5.06725 0.264 5.93125 0.599999 6.74725L1.432 6.45925C1.128 5.73925 0.983999 5.01925 0.983999 4.26725C0.983999 3.03525 1.48 2.18725 2.696 2.18725C4.104 2.18725 4.824 3.09925 4.84 5.48325H5.656V4.68325Z" fill="currentColor"/>
</svg>
