<svg width="30" height="33" viewBox="0 0 30 33" fill="currentColor" xmlns="http://www.w3.org/2000/svg">
<path d="M15.0335 2.50073C23.2823 2.50073 29.9692 9.1858 29.9692 17.4323C29.9692 25.6787 23.2823 32.3638 15.0335 32.3638C6.78464 32.3638 0.0976562 25.6787 0.0976562 17.4323C0.0976562 9.1858 6.78464 2.50073 15.0335 2.50073ZM15.0335 4.98932C8.15944 4.98932 2.58696 10.5602 2.58696 17.4323C2.58696 24.3043 8.15944 29.8752 15.0335 29.8752C21.9075 29.8752 27.4799 24.3043 27.4799 17.4323C27.4799 10.5602 21.9075 4.98932 15.0335 4.98932Z" fill="currentColor"/>
<path d="M30 26.1423L15.0361 0L0 26.1423H30ZM15.0309 5.00146L25.7075 23.6537H4.30279L15.0309 5.00146Z" fill="currentColor"/>
</svg>
