<svg width="1201" height="384" viewBox="0 0 1201 384" fill="currentCOlor" xmlns="http://www.w3.org/2000/svg">
<path d="M219.162 99.0609C217.12 61.6713 191.431 42.9765 142.148 42.9765C116.297 42.9765 96.1436 48.3486 81.6867 59.039C67.2297 69.7294 60.0281 84.2877 60.0281 102.606C60.0281 115.553 63.9514 126.082 71.7441 134.194C79.5907 142.36 96.896 149.827 123.768 156.649L184.444 171.423C221.151 180.609 246.571 193.018 260.706 208.651C274.84 224.284 281.881 244.536 281.881 269.302C281.881 304.327 268.606 332.208 242.111 352.891C215.561 373.627 180.574 383.995 137.042 383.995C90.4468 383.995 56.1048 374.057 34.0163 354.18C11.9278 334.304 0.856628 307.551 0.856628 273.868V267.744H53.9013C53.9013 293.583 61.3179 312.171 76.0974 323.559C90.8768 334.948 113.073 340.643 142.685 340.643C171.599 340.643 193.204 334.25 207.446 321.518C221.742 308.786 228.89 293.207 228.89 274.889C228.89 254.851 220.56 240.561 203.899 232.073C187.239 223.585 157.572 214.721 114.9 205.535C72.2278 196.349 43.4214 183.51 28.427 167.017C13.4863 150.525 5.96225 130.756 5.96225 107.602C5.96225 74.994 19.1294 48.8858 45.5174 29.3315C71.8516 9.77716 105.441 0 146.232 0C185.68 0 216.368 8.5953 238.295 25.7322C260.222 42.9228 271.508 67.2582 272.207 98.8997H219.162V99.0609Z" fill="currentColor"/>
<path d="M479.495 7.2522L628.418 375.346H572.847L533.077 279.508H362.227L322.457 375.346H269.896L424.946 7.2522H479.495ZM378.458 238.251H517.707L449.882 57.7496L378.458 238.251Z" fill="currentColor"/>
<path d="M867.952 99.0609C864.889 80.3661 855.968 66.0764 841.188 56.2455C826.409 46.4147 807.599 41.4724 784.811 41.4724C741.978 41.4724 710.86 56.0307 691.459 85.0398C672.058 114.103 662.384 149.343 662.384 190.816C662.384 235.672 672.058 272.202 691.459 300.46C710.86 328.663 745.202 342.791 794.485 342.791C808.082 342.791 821.196 341.932 833.772 340.267C846.347 338.547 859.783 335.485 874.079 331.08V221.974H789.917V179.642H925.082V361.164C903.315 368.631 881.711 374.272 860.321 377.978C838.877 381.739 816.95 383.565 794.539 383.565C730.584 383.565 683.666 365.784 653.731 330.275C623.796 294.765 608.855 250.499 608.855 197.477C608.855 143.434 623.742 97.2344 653.462 58.7704C683.236 20.3601 728.864 1.18188 790.401 1.18188C828.827 1.18188 860.267 10.0458 884.774 27.7199C909.281 45.394 922.179 69.1922 923.523 99.1146H867.952V99.0609Z" fill="currentColor"/>
<path d="M1196.92 7.2522V50.6048H1016.88V165.298H1188.26V208.114H1016.88V330.489H1201V375.346H965.873V7.2522H1196.92Z" fill="currentColor"/>
</svg>
