<svg width="243" height="58" viewBox="0 0 243 58" fill="none" xmlns="http://www.w3.org/2000/svg">
<path d="M25.8835 4.72705C40.0858 4.72705 51.5991 16.4722 51.5991 30.9606C51.5991 45.449 40.0858 57.1942 25.8835 57.1942C11.6812 57.1942 0.167969 45.449 0.167969 30.9606C0.167969 16.4722 11.6812 4.72705 25.8835 4.72705ZM25.8835 9.09931C14.0483 9.09931 4.4539 18.887 4.4539 30.9606C4.4539 43.0343 14.0483 52.8219 25.8835 52.8219C37.7188 52.8219 47.3132 43.0343 47.3132 30.9606C47.3132 18.887 37.7188 9.09931 25.8835 9.09931Z" fill="currentColor"/>
<path d="M51.6522 46.2636L25.8883 0.333496L0 46.2636H51.6522ZM25.8793 9.12069L44.2616 41.8913H7.40828L25.8793 9.12069Z" fill="currentColor"/>
<path d="M98.4552 16.6229C98.1937 11.7372 94.904 9.29441 88.5931 9.29441C85.2828 9.29441 82.702 9.99638 80.8507 11.3933C78.9994 12.7902 78.0772 14.6925 78.0772 17.0862C78.0772 18.7779 78.5796 20.1538 79.5775 21.2137C80.5823 22.2807 82.7984 23.2565 86.2394 24.1479L94.0094 26.0783C98.7098 27.2787 101.965 28.9002 103.775 30.943C105.585 32.9857 106.487 35.6321 106.487 38.8681C106.487 43.4449 104.787 47.0881 101.394 49.7907C97.9941 52.5002 93.5138 53.855 87.9393 53.855C81.9725 53.855 77.5748 52.5564 74.7463 49.9591C71.9177 47.3619 70.5 43.8661 70.5 39.4648V38.6645H77.2927C77.2927 42.041 78.2424 44.4698 80.135 45.9579C82.0276 47.4461 84.8699 48.1902 88.6619 48.1902C92.3645 48.1902 95.1311 47.3548 96.9549 45.6912C98.7856 44.0275 99.7009 41.9918 99.7009 39.5982C99.7009 36.9798 98.6341 35.1126 96.5007 34.0035C94.3672 32.8944 90.5683 31.7362 85.1039 30.5358C79.6395 29.3355 75.9506 27.6578 74.0305 25.5027C72.1173 23.3477 71.1538 20.7645 71.1538 17.739C71.1538 13.4781 72.8399 10.0666 76.219 7.51143C79.5913 4.95628 83.8926 3.67871 89.1162 3.67871C94.1676 3.67871 98.0973 4.80185 100.905 7.04111C103.713 9.2874 105.158 12.4673 105.248 16.6018H98.4552V16.6229Z" fill="currentColor"/>
<path d="M131.791 4.62646L150.862 52.725H143.746L138.653 40.2019H116.775L111.682 52.725H104.951L124.806 4.62646H131.791ZM118.853 34.8109H136.685L127.999 11.2249L118.853 34.8109Z" fill="currentColor"/>
<path d="M181.536 16.6233C181.144 14.1804 180.001 12.3132 178.109 11.0286C176.216 9.74402 173.808 9.09822 170.89 9.09822C165.404 9.09822 161.42 11.0005 158.935 14.7911C156.451 18.5888 155.212 23.1936 155.212 28.6128C155.212 34.4742 156.451 39.2475 158.935 42.9398C161.42 46.6252 165.817 48.4713 172.128 48.4713C173.869 48.4713 175.549 48.359 177.159 48.1414C178.77 47.9168 180.49 47.5166 182.321 46.941V32.6842H171.543V27.1527H188.852V50.872C186.065 51.8478 183.298 52.5848 180.559 53.0692C177.813 53.5605 175.005 53.7992 172.135 53.7992C163.945 53.7992 157.937 51.4757 154.104 46.8357C150.271 42.1958 148.357 36.4116 148.357 29.4832C148.357 22.4215 150.264 16.3846 154.07 11.3585C157.882 6.3395 163.725 3.8335 171.605 3.8335C176.526 3.8335 180.552 4.99173 183.69 7.30119C186.829 9.61065 188.48 12.7203 188.652 16.6303H181.536V16.6233Z" fill="currentColor"/>
<path d="M223.662 4.62646V10.2913H200.607V25.2782H222.554V30.8729H200.607V46.8636H224.185V52.725H194.076V4.62646H223.662Z" fill="currentColor"/>
<path d="M235.782 3.95996V4.71106H233.986V10.2636H233.235V4.71106H231.487V3.95996H235.782ZM238.314 3.95996L239.973 9.14747L241.666 3.95996H243.001V10.2636H242.217V4.60577L240.296 10.2636H239.526L237.674 4.60577V10.2636H236.883V3.95996H238.314Z" fill="currentColor"/>
</svg>
