<svg width="183" height="50" viewBox="0 0 183 50" fill="none" xmlns="http://www.w3.org/2000/svg">
<path d="M25.2151 8.0647C35.2076 8.0647 43.3081 16.2574 43.3081 26.3637C43.3081 36.4699 35.2076 44.6627 25.2151 44.6627C15.2226 44.6627 7.12207 36.4699 7.12207 26.3637C7.12207 16.2574 15.2226 8.0647 25.2151 8.0647ZM25.2151 11.1145C16.888 11.1145 10.1376 17.9418 10.1376 26.3637C10.1376 34.7855 16.888 41.6128 25.2151 41.6128C33.5421 41.6128 40.2926 34.7855 40.2926 26.3637C40.2926 17.9418 33.5421 11.1145 25.2151 11.1145Z" fill="white"/>
<path d="M43.3452 37.0381L25.2182 5L7.00366 37.0381H43.3452ZM25.2119 11.1294L38.1453 33.9883H12.216L25.2119 11.1294Z" fill="white"/>
<path d="M76.2744 16.3625C76.0904 12.9545 73.7758 11.2506 69.3356 11.2506C67.0065 11.2506 65.1907 11.7402 63.8882 12.7146C62.5856 13.689 61.9368 15.0159 61.9368 16.6856C61.9368 17.8657 62.2903 18.8254 62.9924 19.5648C63.6993 20.309 65.2585 20.9896 67.6796 21.6115L73.1464 22.958C76.4535 23.7953 78.7439 24.9264 80.0174 26.3513C81.2908 27.7762 81.9252 29.6221 81.9252 31.8794C81.9252 35.0719 80.7291 37.6132 78.342 39.4983C75.95 41.3884 72.7977 42.3334 68.8756 42.3334C64.6774 42.3334 61.5833 41.4275 59.5932 39.6158C57.6031 37.8041 56.6056 35.3657 56.6056 32.2956V31.7374H61.3848C61.3848 34.0926 62.053 35.7868 63.3846 36.8248C64.7162 37.8629 66.716 38.3819 69.384 38.3819C71.9891 38.3819 73.9356 37.7992 75.2188 36.6388C76.5068 35.4783 77.1508 34.0583 77.1508 32.3886C77.1508 30.5623 76.4003 29.2598 74.8992 28.4861C73.3981 27.7125 70.7253 26.9046 66.8806 26.0673C63.036 25.23 60.4406 24.0597 59.0896 22.5565C57.7435 21.0533 57.0656 19.2514 57.0656 17.141C57.0656 14.1689 58.2519 11.7892 60.6294 10.0068C63.0021 8.22453 66.0284 7.33337 69.7036 7.33337C73.2577 7.33337 76.0226 8.11681 77.9982 9.67879C79.9738 11.2457 80.9906 13.4638 81.0536 16.3478H76.2744V16.3625Z" fill="white"/>
<path d="M99.7297 7.99438L113.147 41.545H108.14L104.557 32.8097H89.1641L85.581 41.545H80.8453L94.8149 7.99438H99.7297ZM90.6265 29.0492H103.172L97.0617 12.5971L90.6265 29.0492Z" fill="white"/>
<path d="M134.729 16.3624C134.453 14.6584 133.649 13.356 132.317 12.4599C130.986 11.5639 129.291 11.1134 127.238 11.1134C123.379 11.1134 120.575 12.4403 118.827 15.0844C117.079 17.7334 116.208 20.9455 116.208 24.7256C116.208 28.8142 117.079 32.1438 118.827 34.7193C120.575 37.2899 123.669 38.5777 128.11 38.5777C129.335 38.5777 130.516 38.4994 131.649 38.3476C132.782 38.1909 133.993 37.9118 135.281 37.5103V27.5656H127.698V23.7071H139.876V40.2523C137.915 40.9329 135.968 41.4471 134.041 41.7849C132.109 42.1277 130.134 42.2941 128.114 42.2941C122.352 42.2941 118.125 40.6734 115.428 37.4368C112.731 34.2003 111.385 30.1656 111.385 25.3328C111.385 20.4069 112.726 16.1959 115.404 12.6901C118.086 9.18908 122.197 7.44104 127.742 7.44104C131.204 7.44104 134.036 8.24896 136.244 9.8599C138.452 11.4708 139.614 13.64 139.736 16.3673H134.729V16.3624Z" fill="white"/>
<path d="M164.368 7.99438V11.9458H148.146V22.3998H163.588V26.3023H148.146V37.4565H164.736V41.545H143.551V7.99438H164.368Z" fill="white"/>
<path d="M172.895 7.52917V8.0531H171.631V11.9262H171.103V8.0531H169.873V7.52917H172.895ZM174.676 7.52917L175.843 11.1477L177.035 7.52917H177.974V11.9262H177.422V7.97965L176.071 11.9262H175.529L174.226 7.97965V11.9262H173.669V7.52917H174.676Z" fill="white"/>
</svg>
