<svg width="38" height="37" viewBox="0 0 38 37" fill="none" xmlns="http://www.w3.org/2000/svg">
<path d="M6.62844 0.252258H30.8028C34.4679 0.252258 37.4312 3.21556 37.4312 6.8807V30.1192C37.4312 33.7844 34.4679 36.7477 30.8028 36.7477H6.62844C2.9633 36.7477 0 33.7844 0 30.1192V6.8807C0 3.21556 2.9633 0.252258 6.62844 0.252258Z" fill="#330000"/>
<path d="M18.1406 22.1495H12.3387L11.1534 25.8147C11.1222 25.955 10.9975 26.0486 10.8571 26.033H7.92497C7.75341 26.033 7.70663 25.9394 7.75341 25.7523L12.7754 11.2945C12.8222 11.1385 12.869 10.967 12.9314 10.7798C12.9938 10.4523 13.025 10.1092 13.025 9.76604C13.0094 9.68806 13.0718 9.61008 13.1497 9.59448C13.1653 9.59448 13.1809 9.59448 13.1965 9.59448H17.1892C17.314 9.59448 17.3764 9.64127 17.3919 9.71925L23.0846 25.7835C23.1314 25.955 23.0846 26.033 22.9286 26.033H19.669C19.5598 26.0486 19.4507 25.9706 19.4195 25.8615L18.1406 22.1495ZM13.2433 18.9835H17.2048C17.1112 18.6559 16.9864 18.266 16.8461 17.8605C16.7057 17.4394 16.5653 16.9871 16.425 16.5193C16.269 16.0358 16.1286 15.5679 15.9727 15.0844C15.8167 14.6009 15.6763 14.1486 15.5516 13.6963C15.4268 13.2596 15.3176 12.8541 15.2085 12.4798H15.1773C15.0369 13.1504 14.8653 13.8211 14.647 14.4917C14.413 15.2404 14.1791 16.0202 13.9296 16.8C13.7112 17.5954 13.4773 18.3284 13.2433 18.9835Z" fill="#FF9A00"/>
<path d="M26.4857 12.2615C25.971 12.2771 25.4719 12.0743 25.0976 11.7156C24.7389 11.3257 24.5517 10.811 24.5673 10.2807C24.5517 9.75047 24.7545 9.25139 25.1288 8.89267C25.5031 8.53396 26.0022 8.3468 26.5168 8.3468C27.1251 8.3468 27.593 8.53396 27.9361 8.89267C28.2792 9.26699 28.4664 9.76607 28.4508 10.2807C28.4664 10.811 28.2792 11.3257 27.9049 11.7156C27.5462 12.0899 27.0159 12.2927 26.4857 12.2615ZM24.7389 25.7991V13.7899C24.7389 13.634 24.8013 13.5716 24.9416 13.5716H28.0297C28.1701 13.5716 28.2324 13.6496 28.2324 13.7899V25.7991C28.2324 25.9707 28.1701 26.0486 28.0297 26.0486H24.9728C24.8169 26.0486 24.7389 25.9551 24.7389 25.7991Z" fill="#FF9A00"/>
</svg>
