<svg width="16" height="14" viewBox="0 0 16 14" fill="none" xmlns="http://www.w3.org/2000/svg">
<path d="M0 1.13636C0 0.508767 0.508767 0 1.13636 0C1.76396 0 2.27273 0.508767 2.27273 1.13636C2.27273 1.76396 1.76396 2.27273 1.13636 2.27273C0.508767 2.27273 0 1.76396 0 1.13636Z" fill="currentcolor"/>
<path d="M0 4.77272C0 4.14512 0.508767 3.63635 1.13636 3.63635C1.76396 3.63635 2.27273 4.14512 2.27273 4.77272C2.27273 5.40031 1.76396 5.90908 1.13636 5.90908C0.508767 5.90908 0 5.40031 0 4.77272Z" fill="currentcolor"/>
<path d="M0 8.40907C0 7.78147 0.508767 7.27271 1.13636 7.27271C1.76396 7.27271 2.27273 7.78147 2.27273 8.40907C2.27273 9.03667 1.76396 9.54543 1.13636 9.54543C0.508767 9.54543 0 9.03667 0 8.40907Z" fill="currentcolor"/>
<path d="M0 12.0455C0 11.4179 0.508767 10.9091 1.13636 10.9091C1.76396 10.9091 2.27273 11.4179 2.27273 12.0455C2.27273 12.6731 1.76396 13.1818 1.13636 13.1818C0.508767 13.1818 0 12.6731 0 12.0455Z" fill="currentcolor"/>
<path d="M6.36523 1.13636C6.36523 0.508767 6.874 0 7.5016 0C8.12919 0 8.63796 0.508767 8.63796 1.13636C8.63796 1.76396 8.12919 2.27273 7.5016 2.27273C6.874 2.27273 6.36523 1.76396 6.36523 1.13636Z" fill="currentcolor"/>
<path d="M6.36523 4.77278C6.36523 4.14518 6.874 3.63641 7.5016 3.63641C8.12919 3.63641 8.63796 4.14518 8.63796 4.77278C8.63796 5.40037 8.12919 5.90914 7.5016 5.90914C6.874 5.90914 6.36523 5.40037 6.36523 4.77278Z" fill="currentcolor"/>
<path d="M6.36523 8.40913C6.36523 7.78153 6.874 7.27277 7.5016 7.27277C8.12919 7.27277 8.63796 7.78153 8.63796 8.40913C8.63796 9.03673 8.12919 9.54549 7.5016 9.54549C6.874 9.54549 6.36523 9.03673 6.36523 8.40913Z" fill="currentcolor"/>
<path d="M6.36523 12.0454C6.36523 11.4178 6.874 10.9091 7.5016 10.9091C8.12919 10.9091 8.63796 11.4178 8.63796 12.0454C8.63796 12.673 8.12919 13.1818 7.5016 13.1818C6.874 13.1818 6.36523 12.673 6.36523 12.0454Z" fill="currentcolor"/>
<path d="M12.7285 1.13636C12.7285 0.508767 13.2373 0 13.8649 0C14.4925 0 15.0012 0.508767 15.0012 1.13636C15.0012 1.76396 14.4925 2.27273 13.8649 2.27273C13.2373 2.27273 12.7285 1.76396 12.7285 1.13636Z" fill="currentcolor"/>
<path d="M12.7285 4.77278C12.7285 4.14518 13.2373 3.63641 13.8649 3.63641C14.4925 3.63641 15.0012 4.14518 15.0012 4.77278C15.0012 5.40037 14.4925 5.90914 13.8649 5.90914C13.2373 5.90914 12.7285 5.40037 12.7285 4.77278Z" fill="currentcolor"/>
<path d="M12.7285 8.40913C12.7285 7.78153 13.2373 7.27277 13.8649 7.27277C14.4925 7.27277 15.0012 7.78153 15.0012 8.40913C15.0012 9.03673 14.4925 9.54549 13.8649 9.54549C13.2373 9.54549 12.7285 9.03673 12.7285 8.40913Z" fill="currentcolor"/>
<path d="M12.7285 12.0454C12.7285 11.4178 13.2373 10.9091 13.8649 10.9091C14.4925 10.9091 15.0012 11.4178 15.0012 12.0454C15.0012 12.673 14.4925 13.1818 13.8649 13.1818C13.2373 13.1818 12.7285 12.673 12.7285 12.0454Z" fill="currentcolor"/>
</svg>
