<svg width="18" height="18" viewBox="0 0 18 18" fill="none" xmlns="http://www.w3.org/2000/svg">
<path fill-rule="evenodd" clip-rule="evenodd" d="M9 0C13.9706 0 18 4.02944 18 9C18 13.9706 13.9706 18 9 18C4.02944 18 0 13.9706 0 9C0 4.02944 4.02944 0 9 0ZM14.0303 5.46967C13.7374 5.17678 13.2626 5.17678 12.9697 5.46967L7.5 10.9394L5.03033 8.46967L5.00321 8.44385C4.70882 8.17705 4.25369 8.18565 3.96967 8.46967C3.67678 8.76256 3.67678 9.23744 3.96967 9.53033L7.5 13.0607L14.0303 6.53033L14.0562 6.50321C14.323 6.20882 14.3143 5.75369 14.0303 5.46967Z" fill="currentColor"/>
</svg>
