<svg width="12" height="12" viewBox="0 0 12 12" fill="none" xmlns="http://www.w3.org/2000/svg">
<path fill-rule="evenodd" clip-rule="evenodd" d="M6 0C9.31371 0 12 2.68629 12 6C12 9.31371 9.31371 12 6 12C2.68629 12 0 9.31371 0 6C0 2.68629 2.68629 0 6 0ZM4.56263 2.3535C4.35334 2.19063 4.05084 2.21939 3.87635 2.42283C3.69657 2.63243 3.72075 2.94809 3.93035 3.12787L6.98677 5.74954L3.93035 8.37109L3.91234 8.3873C3.7195 8.56935 3.70186 8.87269 3.87635 9.07613C4.05613 9.28574 4.37179 9.30991 4.58139 9.13013L8.08037 6.129L8.09825 6.11292C8.31284 5.91063 8.30688 5.56425 8.08037 5.36996L4.58139 2.36883L4.56263 2.3535Z" fill="#F5F5F5"/>
</svg>
