<svg width="39" height="37" viewBox="0 0 39 37" fill="none" xmlns="http://www.w3.org/2000/svg">
<path d="M7.19875 0.252197H31.3731C35.0382 0.252197 38.0015 3.2155 38.0015 6.88064V30.1192C38.0015 33.7843 35.0382 36.7476 31.3731 36.7476H7.19875C3.53362 36.7476 0.570312 33.7843 0.570312 30.1192V6.88064C0.570312 3.2155 3.53362 0.252197 7.19875 0.252197Z" fill="#49021F"/>
<path d="M14.1655 9.79729V25.7991C14.1655 25.9707 14.0875 26.0487 13.9471 26.0487H10.8903C10.7499 26.0487 10.6875 25.9707 10.6875 25.7991V9.79729C10.6875 9.65692 10.7655 9.59453 10.9058 9.59453H13.9471C14.0407 9.57894 14.1343 9.64132 14.1499 9.7505C14.1655 9.76609 14.1655 9.78169 14.1655 9.79729Z" fill="#FF3366"/>
<path d="M23.1487 26.2982C21.9945 26.3138 20.8404 26.0798 19.7955 25.5963C18.8129 25.144 18.0019 24.3954 17.4404 23.4752C16.8634 22.5239 16.5826 21.3385 16.5826 19.9193C16.567 18.7651 16.8634 17.6266 17.4404 16.6284C18.0331 15.6147 18.8909 14.7725 19.9202 14.211C21.012 13.6028 22.3221 13.3064 23.8661 13.3064C23.9441 13.3064 24.0533 13.3064 24.1936 13.322C24.334 13.3376 24.49 13.3376 24.6771 13.3532V8.42478C24.6771 8.3156 24.7239 8.25322 24.8331 8.25322H27.9991C28.0771 8.23762 28.1395 8.30001 28.1551 8.36239C28.1551 8.37799 28.1551 8.39358 28.1551 8.39358V23.2413C28.1551 23.522 28.1707 23.8339 28.1863 24.1771C28.2175 24.5046 28.2331 24.8165 28.2487 25.0817C28.2487 25.1908 28.2019 25.2844 28.0927 25.3312C27.2817 25.6743 26.4239 25.9239 25.5505 26.0798C24.7707 26.2202 23.9597 26.2982 23.1487 26.2982ZM24.6771 23.1789V16.3165C24.5367 16.2853 24.3964 16.2541 24.256 16.2385C24.0845 16.2229 23.9129 16.2073 23.7413 16.2073C23.1331 16.2073 22.5248 16.3321 21.9789 16.6129C21.4487 16.878 20.9964 17.2679 20.6533 17.767C20.3101 18.2661 20.1386 18.9367 20.1386 19.7477C20.123 20.2936 20.2166 20.8395 20.4037 21.3541C20.5597 21.7752 20.7936 22.1495 21.1056 22.4615C21.4019 22.7422 21.7606 22.9606 22.1661 23.0853C22.5872 23.2257 23.0239 23.2881 23.4606 23.2881C23.6945 23.2881 23.9129 23.2725 24.1156 23.2569C24.3184 23.2725 24.5056 23.2413 24.6771 23.1789Z" fill="#FF3366"/>
</svg>
