<svg width="120" height="120" viewBox="0 0 120 120" fill="none" xmlns="http://www.w3.org/2000/svg">
<path d="M103.239 13.371L65.7627 41.2052L72.693 24.7834L103.239 13.371Z" fill="#E2761B" stroke="#E2761B" stroke-linecap="round" stroke-linejoin="round"/>
<path d="M16.7231 13.371L53.8983 41.4689L47.3069 24.7834L16.7231 13.371Z" fill="#E4761B" stroke="#E4761B" stroke-linecap="round" stroke-linejoin="round"/>
<path d="M89.7551 77.8907L79.7739 93.1826L101.13 99.0584L107.269 78.2297L89.7551 77.8907Z" fill="#E4761B" stroke="#E4761B" stroke-linecap="round" stroke-linejoin="round"/>
<path d="M12.7683 78.2297L18.87 99.0584L40.2259 93.1826L30.2448 77.8907L12.7683 78.2297Z" fill="#E4761B" stroke="#E4761B" stroke-linecap="round" stroke-linejoin="round"/>
<path d="M39.0206 52.0527L33.0696 61.0546L54.2749 61.9962L53.5216 39.209L39.0206 52.0527Z" fill="#E4761B" stroke="#E4761B" stroke-linecap="round" stroke-linejoin="round"/>
<path d="M80.9416 52.0527L66.2523 38.9453L65.7627 61.9962L86.9303 61.0545L80.9416 52.0527Z" fill="#E4761B" stroke="#E4761B" stroke-linecap="round" stroke-linejoin="round"/>
<path d="M40.226 93.1826L52.9566 86.9679L41.9585 78.3804L40.226 93.1826Z" fill="#E4761B" stroke="#E4761B" stroke-linecap="round" stroke-linejoin="round"/>
<path d="M67.0056 86.9679L79.774 93.1826L78.0037 78.3804L67.0056 86.9679Z" fill="#E4761B" stroke="#E4761B" stroke-linecap="round" stroke-linejoin="round"/>
<path d="M79.774 93.1827L67.0056 86.968L68.0226 95.2919L67.9096 98.7948L79.774 93.1827Z" fill="#D7C1B3" stroke="#D7C1B3" stroke-linecap="round" stroke-linejoin="round"/>
<path d="M40.226 93.1827L52.0904 98.7948L52.015 95.2919L52.9566 86.968L40.226 93.1827Z" fill="#D7C1B3" stroke="#D7C1B3" stroke-linecap="round" stroke-linejoin="round"/>
<path d="M52.2787 72.8813L41.6572 69.7551L49.1525 66.3276L52.2787 72.8813Z" fill="#233447" stroke="#233447" stroke-linecap="round" stroke-linejoin="round"/>
<path d="M67.6836 72.8813L70.8098 66.3276L78.3427 69.7551L67.6836 72.8813Z" fill="#233447" stroke="#233447" stroke-linecap="round" stroke-linejoin="round"/>
<path d="M40.226 93.1826L42.0339 77.8907L30.2449 78.2297L40.226 93.1826Z" fill="#CD6116" stroke="#CD6116" stroke-linecap="round" stroke-linejoin="round"/>
<path d="M77.9662 77.8907L79.7741 93.1826L89.7553 78.2297L77.9662 77.8907Z" fill="#CD6116" stroke="#CD6116" stroke-linecap="round" stroke-linejoin="round"/>
<path d="M86.9304 61.0546L65.7628 61.9962L67.7214 72.8813L70.8476 66.3276L78.3805 69.7551L86.9304 61.0546Z" fill="#CD6116" stroke="#CD6116" stroke-linecap="round" stroke-linejoin="round"/>
<path d="M41.6573 69.7551L49.1902 66.3276L52.2787 72.8813L54.275 61.9962L33.0697 61.0546L41.6573 69.7551Z" fill="#CD6116" stroke="#CD6116" stroke-linecap="round" stroke-linejoin="round"/>
<path d="M33.0697 61.0546L41.9586 78.3804L41.6573 69.7551L33.0697 61.0546Z" fill="#E4751F" stroke="#E4751F" stroke-linecap="round" stroke-linejoin="round"/>
<path d="M78.3804 69.7551L78.0038 78.3804L86.9303 61.0546L78.3804 69.7551Z" fill="#E4751F" stroke="#E4751F" stroke-linecap="round" stroke-linejoin="round"/>
<path d="M54.2749 61.9962L52.2787 72.8813L54.7646 85.725L55.3295 68.8135L54.2749 61.9962Z" fill="#E4751F" stroke="#E4751F" stroke-linecap="round" stroke-linejoin="round"/>
<path d="M65.7627 61.9962L64.7457 68.7759L65.1977 85.725L67.7212 72.8813L65.7627 61.9962Z" fill="#E4751F" stroke="#E4751F" stroke-linecap="round" stroke-linejoin="round"/>
<path d="M67.7213 72.8813L65.1978 85.725L67.0057 86.9679L78.0038 78.3804L78.3804 69.7551L67.7213 72.8813Z" fill="#F6851B" stroke="#F6851B" stroke-linecap="round" stroke-linejoin="round"/>
<path d="M41.6572 69.7551L41.9585 78.3804L52.9567 86.9679L54.7646 85.725L52.2787 72.8813L41.6572 69.7551Z" fill="#F6851B" stroke="#F6851B" stroke-linecap="round" stroke-linejoin="round"/>
<path d="M67.9096 98.7947L68.0226 95.2918L67.0809 94.4632H52.8813L52.015 95.2918L52.0904 98.7947L40.226 93.1826L44.3691 96.5724L52.7683 102.41H67.1939L75.6308 96.5724L79.774 93.1826L67.9096 98.7947Z" fill="#C0AD9E" stroke="#C0AD9E" stroke-linecap="round" stroke-linejoin="round"/>
<path d="M67.0056 86.968L65.1977 85.7251H54.7645L52.9566 86.968L52.015 95.292L52.8813 94.4633H67.0809L68.0225 95.292L67.0056 86.968Z" fill="#161616" stroke="#161616" stroke-linecap="round" stroke-linejoin="round"/>
<path d="M104.821 43.0132L108.023 27.6459L103.239 13.371L67.0056 40.2636L80.9416 52.0527L100.64 57.8154L105.009 52.7307L103.126 51.3747L106.139 48.6252L103.804 46.8173L106.817 44.5197L104.821 43.0132Z" fill="#763D16" stroke="#763D16" stroke-linecap="round" stroke-linejoin="round"/>
<path d="M11.9774 27.6459L15.1789 43.0132L13.145 44.5197L16.1582 46.8173L13.8607 48.6252L16.8738 51.3747L14.9906 52.7307L19.322 57.8154L39.0207 52.0527L52.9567 40.2636L16.7232 13.371L11.9774 27.6459Z" fill="#763D16" stroke="#763D16" stroke-linecap="round" stroke-linejoin="round"/>
<path d="M100.64 57.8154L80.9416 52.0527L86.9303 61.0546L78.0038 78.3804L89.7552 78.2298H107.269L100.64 57.8154Z" fill="#F6851B" stroke="#F6851B" stroke-linecap="round" stroke-linejoin="round"/>
<path d="M39.0207 52.0527L19.322 57.8154L12.7683 78.2298H30.2448L41.9585 78.3804L33.0696 61.0546L39.0207 52.0527Z" fill="#F6851B" stroke="#F6851B" stroke-linecap="round" stroke-linejoin="round"/>
<path d="M65.7628 61.9963L67.0057 40.2637L72.7307 24.7834H47.307L52.9567 40.2637L54.275 61.9963L54.727 68.8512L54.7646 85.7251H65.1978L65.2731 68.8512L65.7628 61.9963Z" fill="#F6851B" stroke="#F6851B" stroke-linecap="round" stroke-linejoin="round"/>
</svg>
