<svg width="40" height="40" viewBox="0 0 40 40" fill="none" xmlns="http://www.w3.org/2000/svg">
<path fill-rule="evenodd" clip-rule="evenodd" d="M20 0C31.0457 0 40 8.95431 40 20C40 31.0457 31.0457 40 20 40C8.95431 40 0 31.0457 0 20C0 8.95431 8.95431 0 20 0ZM26.6667 18.3333H13.3333L13.261 18.3349C12.3741 18.3727 11.6667 19.1037 11.6667 20C11.6667 20.9205 12.4129 21.6667 13.3333 21.6667H26.6667L26.739 21.6651C27.6259 21.6273 28.3333 20.8963 28.3333 20C28.3333 19.0795 27.5871 18.3333 26.6667 18.3333Z" fill="white"/>
</svg>
