<svg width="40" height="40" viewBox="0 0 40 40" fill="none" xmlns="http://www.w3.org/2000/svg">
<path fill-rule="evenodd" clip-rule="evenodd" d="M20 0C31.0457 0 40 8.95431 40 20C40 31.0457 31.0457 40 20 40C8.95431 40 0 31.0457 0 20C0 8.95431 8.95431 0 20 0ZM20 11.6667C19.0795 11.6667 18.3333 12.4129 18.3333 13.3333V18.3333H13.3333L13.261 18.3349C12.3741 18.3727 11.6667 19.1037 11.6667 20C11.6667 20.9205 12.4129 21.6667 13.3333 21.6667H18.3333V26.6667L18.3349 26.739C18.3727 27.6259 19.1037 28.3333 20 28.3333C20.9205 28.3333 21.6667 27.5871 21.6667 26.6667V21.6667H26.6667L26.739 21.6651C27.6259 21.6273 28.3333 20.8963 28.3333 20C28.3333 19.0795 27.5871 18.3333 26.6667 18.3333H21.6667V13.3333L21.6651 13.261C21.6273 12.3741 20.8963 11.6667 20 11.6667Z" fill="white"/>
</svg>
