<svg width="45" height="48" viewBox="0 0 45 48" fill="none" xmlns="http://www.w3.org/2000/svg">
<path d="M22.2904 3.70789C34.5211 3.70789 44.436 13.6199 44.436 25.8471C44.436 38.0742 34.5211 47.9863 22.2904 47.9863C10.0598 47.9863 0.144897 38.0742 0.144897 25.8471C0.144897 13.6199 10.0598 3.70789 22.2904 3.70789ZM22.2904 7.39775C12.0982 7.39775 3.83582 15.6578 3.83582 25.8471C3.83582 36.0364 12.0982 44.2964 22.2904 44.2964C32.4826 44.2964 40.745 36.0364 40.745 25.8471C40.745 15.6578 32.4826 7.39775 22.2904 7.39775Z" fill="white"/>
<path d="M44.4815 38.7616L22.2943 0L0 38.7616H44.4815ZM22.2866 7.41575L38.1169 35.0718H6.37981L22.2866 7.41575Z" fill="white"/>
</svg>
