<svg width="104" height="120" viewBox="0 0 104 120" fill="none" xmlns="http://www.w3.org/2000/svg">
<g clip-path="url(#clip0_65_1818)">
<path fill-rule="evenodd" clip-rule="evenodd" d="M51.7949 0L103.484 30V90L51.7949 120L0.105713 90V30L51.7949 0Z" fill="white"/>
<path d="M31.4422 47.1199C42.6632 36.0899 60.8559 36.0899 72.0768 47.1199L73.4273 48.4474C73.9884 48.9989 73.9884 49.8931 73.4273 50.4446L68.8077 54.9856C68.5271 55.2614 68.0723 55.2614 67.7918 54.9856L65.9334 53.1589C58.1054 45.464 45.4137 45.464 37.5857 53.1589L35.5955 55.1152C35.315 55.3909 34.8602 55.3909 34.5796 55.1152L29.96 50.5741C29.3989 50.0226 29.3989 49.1285 29.96 48.577L31.4422 47.1199ZM81.6587 56.5482L85.7692 60.578C86.3301 61.1279 86.3301 62.0194 85.7692 62.5693L67.2347 80.7401C66.6738 81.29 65.7644 81.29 65.2035 80.7401C65.2035 80.7401 65.2035 80.7401 65.2035 80.7401L52.0488 67.8438C51.9086 67.7063 51.6813 67.7063 51.541 67.8438C51.541 67.8438 51.541 67.8438 51.541 67.8438L38.3867 80.7401C37.8258 81.29 36.9164 81.29 36.3554 80.7401C36.3554 80.7401 36.3554 80.7401 36.3554 80.7401L17.8205 62.5691C17.2596 62.0192 17.2596 61.1276 17.8205 60.5778L21.931 56.548C22.4919 55.9981 23.4013 55.9981 23.9622 56.548L37.117 69.4445C37.2572 69.5819 37.4846 69.5819 37.6248 69.4445C37.6248 69.4445 37.6248 69.4445 37.6248 69.4445L50.779 56.548C51.3399 55.9981 52.2493 55.9981 52.8102 56.5479C52.8102 56.548 52.8102 56.548 52.8102 56.548L65.965 69.4445C66.1053 69.5819 66.3326 69.5819 66.4729 69.4445L79.6274 56.5482C80.1884 55.9983 81.0978 55.9983 81.6587 56.5482Z" fill="#161619"/>
</g>
<defs>
<clipPath id="clip0_65_1818">
<rect width="103.59" height="120" fill="white"/>
</clipPath>
</defs>
</svg>
