<svg width="74" height="85" viewBox="0 0 74 85" fill="none" xmlns="http://www.w3.org/2000/svg">
<path fill-rule="evenodd" clip-rule="evenodd" d="M73.849 21.25L36.9245 0L0 21.25V63.75L36.9245 85L73.849 63.75V21.25ZM51.4129 33.3763C43.3972 25.5634 30.4011 25.5634 22.3853 33.3763L21.3265 34.4084C20.9257 34.799 20.9257 35.4324 21.3265 35.823L24.6265 39.0396C24.8269 39.2349 25.1518 39.2349 25.3522 39.0396L26.7739 37.6539C32.3659 32.2034 41.4323 32.2034 47.0243 37.6539L48.3519 38.9478C48.5523 39.1432 48.8772 39.1432 49.0776 38.9478L52.3776 35.7313C52.7784 35.3406 52.7784 34.7072 52.3776 34.3166L51.4129 33.3763ZM61.1941 42.9091L58.2578 40.0547C57.8571 39.6652 57.2074 39.6652 56.8067 40.0547L47.4097 49.1895C47.3095 49.2869 47.1471 49.2869 47.0469 49.1895L37.6497 40.0545C37.249 39.665 36.5993 39.665 36.1987 40.0545L26.8019 49.1895C26.7017 49.2869 26.5393 49.2869 26.4391 49.1895L17.0419 40.0545C16.6412 39.665 15.9916 39.665 15.5909 40.0545L12.6545 42.9089C12.2538 43.2984 12.2538 43.9299 12.6545 44.3195L25.8951 57.1906C26.2958 57.5801 26.9454 57.5801 27.3461 57.1906L36.743 48.0557C36.8432 47.9583 37.0056 47.9583 37.1058 48.0557L46.5029 57.1906C46.9036 57.5801 47.5532 57.5801 47.9539 57.1906L61.1941 44.3196C61.5948 43.9301 61.5948 43.2986 61.1941 42.9091Z" fill="currentColor"/>
</svg>
