<svg width="74" height="85" viewBox="0 0 74 85" fill="none" xmlns="http://www.w3.org/2000/svg">
<path fill-rule="evenodd" clip-rule="evenodd" d="M36.9245 0L73.849 21.25V63.75L36.9245 85L0 63.75V21.25L36.9245 0Z" fill="white"/>
<path d="M22.3858 33.3763C30.4016 25.5634 43.3977 25.5634 51.4134 33.3763L52.3781 34.3166C52.7789 34.7073 52.7789 35.3406 52.3781 35.7313L49.078 38.9478C48.8776 39.1432 48.5527 39.1432 48.3523 38.9478L47.0248 37.6539C41.4328 32.2034 32.3664 32.2034 26.7744 37.6539L25.3527 39.0396C25.1523 39.2349 24.8274 39.2349 24.627 39.0396L21.327 35.823C20.9262 35.4324 20.9262 34.799 21.327 34.4084L22.3858 33.3763ZM58.2582 40.0547L61.1946 42.9091C61.5953 43.2986 61.5953 43.9301 61.1946 44.3196L47.9544 57.1906C47.5537 57.5801 46.9041 57.5801 46.5034 57.1906C46.5034 57.1906 46.5034 57.1906 46.5034 57.1906L37.1063 48.0557C37.0061 47.9583 36.8437 47.9583 36.7435 48.0557C36.7435 48.0557 36.7435 48.0557 36.7435 48.0557L27.3466 57.1906C26.9459 57.5801 26.2963 57.5801 25.8956 57.1906C25.8956 57.1906 25.8956 57.1906 25.8956 57.1906L12.655 44.3195C12.2543 43.9299 12.2543 43.2984 12.655 42.9089L15.5914 40.0545C15.9921 39.665 16.6417 39.665 17.0424 40.0545L26.4396 49.1895C26.5398 49.2869 26.7022 49.2869 26.8024 49.1895C26.8024 49.1895 26.8024 49.1895 26.8024 49.1895L36.1991 40.0545C36.5998 39.665 37.2495 39.665 37.6502 40.0545C37.6502 40.0545 37.6502 40.0545 37.6502 40.0545L47.0474 49.1895C47.1476 49.2869 47.31 49.2869 47.4102 49.1895L56.8072 40.0547C57.2079 39.6652 57.8576 39.6652 58.2582 40.0547Z" fill="#161619"/>
</svg>
