<svg width="27" height="28" viewBox="0 0 27 28" fill="none" xmlns="http://www.w3.org/2000/svg">
<path fill-rule="evenodd" clip-rule="evenodd" d="M23.1974 16.5518C22.7359 16.8392 22.1925 16.8749 21.7794 16.6453C21.2547 16.3534 20.9662 15.6699 20.9662 14.7192V11.8749C20.9662 10.5014 20.415 9.52403 19.4933 9.26014C17.9314 8.81184 16.7567 10.6947 16.3153 11.4018L13.5606 15.8021V10.4238C13.5296 9.18638 13.1217 8.44621 12.3472 8.22301C11.8347 8.07549 11.068 8.13462 10.3231 9.2576L4.15159 19.021C3.32536 17.4756 2.89465 15.7549 2.89688 14.0083C2.89688 8.12699 7.68077 3.3426 13.5606 3.3426C19.4404 3.3426 24.2237 8.12699 24.2237 14.0083C24.2237 14.0185 24.2262 14.0274 24.2269 14.0369C24.2269 14.0471 24.2249 14.056 24.2256 14.0662C24.2811 15.205 23.9067 16.1105 23.1974 16.5518ZM26.593 14.0089V13.979L26.5924 13.9498C26.5594 6.78719 20.7267 0.972656 13.5599 0.972656C6.37443 0.972656 0.527527 6.82025 0.527527 14.0083C0.527527 21.1957 6.37443 27.0439 13.5606 27.0439C16.8581 27.0439 20.0052 25.809 22.421 23.5675C22.9012 23.1224 22.9296 22.3727 22.4842 21.8933C22.3794 21.7794 22.2526 21.6873 22.1112 21.6223C21.9698 21.5573 21.8166 21.5208 21.6607 21.5149C21.5048 21.5089 21.3492 21.5337 21.2031 21.5878C21.0571 21.6418 20.9234 21.7241 20.81 21.8297C18.8518 23.6565 16.2574 24.6745 13.5606 24.674C10.4122 24.674 7.57944 23.3011 5.62574 21.1238L11.1912 12.3194V16.3782C11.1912 18.3279 11.9586 18.958 12.6021 19.1424C13.2463 19.3268 14.2305 19.2009 15.2639 17.5476L18.3251 12.6583C18.4232 12.5006 18.5136 12.3645 18.5962 12.2469V14.7192C18.5962 16.5417 19.3371 17.9991 20.6286 18.717C21.793 19.3643 23.2568 19.3058 24.4496 18.5644C25.8953 17.6646 26.6743 16.0069 26.593 14.0089Z" fill="#B47DBD"/>
</svg>
