<svg width="28" height="29" viewBox="0 0 28 29" fill="none" xmlns="http://www.w3.org/2000/svg">
<path d="M9.09879 2.63966C8.73081 2.58289 8.71515 2.57702 8.88935 2.55158C9.2221 2.50069 10.005 2.56919 10.5453 2.69642C11.8058 2.99393 12.9528 3.75729 14.1781 5.11373L14.503 5.47388L14.9688 5.3995C16.9301 5.08632 18.9226 5.33491 20.5922 6.10022C21.0522 6.31161 21.7764 6.73048 21.8645 6.83814C21.8958 6.87337 21.9487 7.09259 21.982 7.32943C22.1072 8.14759 22.0465 8.77198 21.7941 9.23978C21.657 9.49424 21.6492 9.57449 21.7412 9.79371C21.7852 9.884 21.8536 9.96012 21.9388 10.0134C22.0239 10.0667 22.1223 10.095 22.2227 10.0951C22.6377 10.0951 23.0839 9.42965 23.2895 8.50187L23.3717 8.13193L23.5341 8.31592C24.4286 9.32199 25.1293 10.6921 25.2487 11.6669L25.2801 11.9213L25.1313 11.6904C24.9151 11.3366 24.6246 11.0341 24.2799 10.8037C23.6809 10.4103 23.0467 10.2752 21.3713 10.1871C19.8563 10.1088 18.999 9.97966 18.1495 9.70367C16.703 9.23391 15.9749 8.61148 14.2564 6.37229C13.493 5.37601 13.0232 4.826 12.5535 4.38364C11.4867 3.37561 10.4396 2.84713 9.09879 2.64161V2.63966Z" fill="#B47DBD"/>
<path d="M22.2101 4.86226C22.2473 4.19677 22.3373 3.75637 22.5213 3.35512C22.5616 3.25371 22.6121 3.15665 22.672 3.06543C22.6818 3.06543 22.6505 3.18287 22.6016 3.32576C22.4685 3.71722 22.445 4.24962 22.5389 4.87009C22.6564 5.65694 22.721 5.77046 23.5567 6.61995C23.9502 7.01924 24.4062 7.52032 24.5726 7.73759L24.874 8.12905L24.5726 7.84915C24.2046 7.50662 23.3591 6.83721 23.1711 6.7413C23.0459 6.67867 23.0263 6.67867 22.95 6.755C22.8775 6.82547 22.8638 6.93116 22.8521 7.43224C22.8384 8.21322 22.7307 8.71429 22.4724 9.21341C22.3334 9.48744 22.3119 9.42872 22.4371 9.12142C22.5311 8.89437 22.5409 8.79259 22.5409 8.03706C22.5409 6.52012 22.3569 6.1541 21.2941 5.53167C20.9735 5.34651 20.6443 5.17668 20.3076 5.02276C20.1417 4.95607 19.9807 4.87758 19.8261 4.78788C19.8554 4.75852 20.8928 5.05995 21.3097 5.2185C21.9322 5.45729 22.0339 5.48665 22.1103 5.45925C22.1592 5.43968 22.1847 5.29288 22.2081 4.86226H22.2101ZM9.81431 7.45964C9.06856 6.43792 8.60467 4.87009 8.70645 3.69765L8.73581 3.33554L8.9061 3.3649C9.2271 3.42362 9.77712 3.62718 10.0355 3.78377C10.7421 4.21047 11.0494 4.77222 11.3606 6.21674C11.4526 6.63952 11.572 7.11711 11.6268 7.28153C11.7149 7.54185 12.0515 8.15058 12.3236 8.54596C12.5193 8.83173 12.3902 8.96679 11.9556 8.92764C11.2921 8.86892 10.3937 8.25236 9.81431 7.45964ZM21.3019 15.0678C17.81 13.6722 16.5808 12.4587 16.5808 10.4133C16.5808 10.1118 16.5906 9.86521 16.6043 9.86521C16.616 9.86521 16.7511 9.96307 16.9038 10.0864C17.6123 10.6501 18.405 10.8908 20.6012 11.2099C21.893 11.3978 22.6172 11.5485 23.2886 11.7697C25.4221 12.4724 26.7394 13.8973 27.0545 15.8409C27.1445 16.4047 27.0936 17.4616 26.9429 18.0195C26.8255 18.4599 26.4693 19.2526 26.3753 19.2839C26.3479 19.2937 26.3225 19.1939 26.3166 19.0568C26.2814 18.3287 25.9095 17.6182 25.287 17.0858C24.5785 16.481 23.6272 15.9995 21.3019 15.0698V15.0678ZM18.8513 15.6491C18.8103 15.4012 18.7541 15.1561 18.683 14.9151L18.5929 14.6509L18.7593 14.8368C18.9883 15.0913 19.1704 15.4182 19.323 15.8546C19.4405 16.1874 19.4522 16.2853 19.4522 16.8255C19.4522 17.3559 19.4366 17.4675 19.3269 17.765C19.1765 18.2062 18.9244 18.6058 18.591 18.9316C17.9529 19.5775 17.1328 19.9337 15.9486 20.0825C15.7431 20.1079 15.1441 20.151 14.6176 20.1784C13.2886 20.2469 12.4136 20.3898 11.6288 20.6638C11.5576 20.6951 11.4813 20.713 11.4037 20.7167C11.3723 20.6853 11.9087 20.3683 12.3491 20.1569C12.9715 19.8574 13.592 19.6949 14.9817 19.4659C15.6667 19.3524 16.3772 19.2134 16.5573 19.1586C18.2563 18.6419 19.1312 17.305 18.8513 15.6491Z" fill="#B47DBD"/>
<path d="M20.4516 18.4747C19.9877 17.4843 19.88 16.5272 20.1345 15.6347C20.1619 15.5368 20.205 15.4604 20.2324 15.4604C20.2578 15.4604 20.3694 15.5192 20.4751 15.5916C20.6904 15.7345 21.1171 15.9752 22.2602 16.5937C23.6851 17.3669 24.4993 17.9639 25.0513 18.6489C25.5348 19.2459 25.8342 19.929 25.9791 20.759C26.0613 21.2287 26.0124 22.364 25.891 22.8376C25.5074 24.333 24.6187 25.5074 23.3465 26.1925C23.1605 26.2923 22.9942 26.3745 22.9746 26.3745C22.957 26.3745 23.0255 26.2043 23.1253 25.9948C23.554 25.1062 23.6029 24.243 23.2799 23.282C23.0803 22.6928 22.6771 21.9745 21.8628 20.759C20.9155 19.3497 20.6845 18.9719 20.4516 18.4747ZM7.33353 23.8241C8.63124 22.7359 10.2421 21.9647 11.7121 21.7259C12.4692 21.6288 13.2372 21.6586 13.9846 21.814C14.9241 22.0527 15.7657 22.5891 16.2022 23.2252C16.6289 23.8496 16.8129 24.3918 17.0047 25.6014C17.0791 26.077 17.1613 26.5566 17.1848 26.6642C17.3277 27.2906 17.6076 27.7917 17.9521 28.0422C18.5001 28.4415 19.4475 28.4669 20.3772 28.1068C20.4738 28.0623 20.5758 28.0307 20.6806 28.0128C20.7139 28.0461 20.2461 28.3573 19.9172 28.5217C19.5271 28.7292 19.0907 28.8343 18.6489 28.8271C17.7974 28.8271 17.0908 28.3965 16.4997 27.5196C16.2829 27.1483 16.0894 26.7639 15.9204 26.3687C15.2979 24.9574 14.9906 24.5288 14.2684 24.0571C13.6381 23.646 12.8258 23.5736 12.2151 23.8711C11.4126 24.2626 11.1895 25.2804 11.7649 25.9263C12.0338 26.2039 12.3855 26.3866 12.7671 26.447C12.9187 26.4677 13.0729 26.4557 13.2194 26.4116C13.3659 26.3675 13.5012 26.2924 13.6162 26.1914C13.7311 26.0904 13.8229 25.9659 13.8855 25.8262C13.948 25.6866 13.9798 25.5352 13.9787 25.3822C13.9787 24.9574 13.8143 24.7167 13.4013 24.5288C12.8356 24.2763 12.2308 24.5718 12.2327 25.0984C12.2327 25.3235 12.3326 25.4644 12.5596 25.5681C12.7045 25.6327 12.7084 25.6366 12.589 25.6131C12.0722 25.5055 11.9509 24.885 12.3658 24.474C12.8669 23.9807 13.9004 24.198 14.2547 24.8733C14.4034 25.1571 14.421 25.7208 14.2919 26.0614C13.9983 26.8247 13.1527 27.226 12.2915 27.0068C11.7043 26.858 11.4674 26.6975 10.7608 25.9752C9.53357 24.7186 9.05794 24.474 7.28851 24.1999L6.94794 24.1471L7.33353 23.8241Z" fill="#B47DBD"/>
<path fill-rule="evenodd" clip-rule="evenodd" d="M1.5751 1.33462C5.67376 6.27885 8.49819 8.31839 8.81137 8.749C9.06973 9.10524 8.97187 9.42624 8.52951 9.67678C8.21493 9.83483 7.87251 9.92991 7.52148 9.95668C7.23375 9.95668 7.13393 9.84707 7.13393 9.84707C6.96756 9.69048 6.8736 9.71788 6.01825 8.20878C5.29103 7.07697 4.55506 5.95082 3.81038 4.83042C3.74774 4.7717 3.7497 4.7717 5.89885 8.59437C6.2453 9.39101 5.96736 9.68265 5.96736 9.79618C5.96736 10.0271 5.90277 10.1485 5.617 10.4675C5.13941 10.996 4.92606 11.5911 4.77143 12.8222C4.59918 14.2021 4.11376 15.1769 2.76712 16.8465C1.98027 17.8232 1.85109 18.0013 1.65144 18.3967C1.4009 18.8919 1.33239 19.1698 1.30499 19.7942C1.27563 20.4578 1.33239 20.8845 1.53595 21.5167C1.71211 22.0726 1.90002 22.4366 2.37565 23.1687C2.78669 23.8009 3.02157 24.2707 3.02157 24.4546C3.02157 24.5995 3.04897 24.5995 3.68706 24.4566C5.20596 24.116 6.44103 23.5171 7.13589 22.7792C7.5665 22.3231 7.66632 22.0726 7.67024 21.4482C7.6722 21.0411 7.65849 20.9549 7.54693 20.7201C7.36685 20.3384 7.03802 20.0193 6.31381 19.5261C5.36254 18.8802 4.95542 18.3615 4.84581 17.647C4.75185 17.0598 4.85951 16.6468 5.38407 15.5527C5.92821 14.4174 6.06327 13.934 6.15526 12.7929C6.21398 12.0549 6.29423 11.7633 6.50758 11.5284C6.73072 11.2857 6.93037 11.2035 7.48234 11.1291C8.38075 11.0058 8.95034 10.7768 9.4201 10.3462C9.60839 10.1908 9.76031 9.99595 9.86515 9.77545C9.96999 9.55496 10.0252 9.31415 10.0269 9.07001L10.0464 8.65897L9.81743 8.39668C8.9934 7.4415 1.02313 0.583008 0.972243 0.583008C0.962456 0.583008 1.23257 0.921627 1.5751 1.33462ZM3.48546 20.5459C3.57526 20.3873 3.60196 20.2006 3.56023 20.0232C3.51851 19.8458 3.41144 19.6907 3.26037 19.5887C2.96677 19.393 2.50679 19.4869 2.50679 19.7394C2.50679 19.8177 2.54985 19.8745 2.64772 19.9234C2.81214 20.0076 2.82388 20.1015 2.6947 20.2953C2.56356 20.4891 2.5753 20.6594 2.72406 20.7768C2.96481 20.9628 3.30538 20.861 3.48546 20.5459ZM10.6121 11.3464C10.1913 11.4736 9.7822 11.9179 9.65302 12.3838C9.57668 12.6676 9.6217 13.1667 9.73718 13.3194C9.92509 13.568 10.1052 13.6326 10.5965 13.6306C11.5555 13.6247 12.3894 13.2156 12.4872 12.7028C12.5655 12.2839 12.1995 11.7046 11.6945 11.4482C11.3515 11.3089 10.9751 11.2735 10.6121 11.3464ZM11.7356 12.2174C11.8824 12.008 11.8178 11.7829 11.5653 11.6302C11.0877 11.3386 10.3616 11.5793 10.3616 12.0295C10.3616 12.2546 10.7393 12.4993 11.0858 12.4993C11.3168 12.4993 11.6338 12.3622 11.7356 12.2174Z" fill="#B47DBD"/>
</svg>
