<svg width="17" height="17" viewBox="0 0 17 17" fill="none" xmlns="http://www.w3.org/2000/svg">
<path fill-rule="evenodd" clip-rule="evenodd" d="M0.220634 14.6447C-0.0735446 14.9363 -0.0735446 15.4091 0.220634 15.7007C0.514812 15.9923 0.99177 15.9923 1.28595 15.7007L7.93122 9.11363L14.7741 15.8966C15.0683 16.1882 15.5452 16.1882 15.8394 15.8966C16.1336 15.605 16.1336 15.1322 15.8394 14.8406L8.99654 8.05765L15.8394 1.27469C16.1336 0.983085 16.1336 0.510304 15.8394 0.218702C15.5452 -0.0729007 15.0683 -0.0729004 14.7741 0.218702L7.93122 7.00166L1.28595 0.414576C0.99177 0.122974 0.514812 0.122974 0.220634 0.414576C-0.0735446 0.706178 -0.0735443 1.17896 0.220634 1.47056L6.86591 8.05765L0.220634 14.6447Z" fill="#999999"/>
</svg>
